<?xml version="1.0" encoding="utf-8"?>
<!-- Generator: Adobe Illustrator 16.0.3, SVG Export Plug-In . SVG Version: 6.00 Build 0)  -->
<!DOCTYPE svg PUBLIC "-//W3C//DTD SVG 1.0//EN" "http://www.w3.org/TR/2001/REC-SVG-20010904/DTD/svg10.dtd" [
	<!ENTITY ns_flows "http://ns.adobe.com/Flows/1.0/">
	<!ENTITY ns_extend "http://ns.adobe.com/Extensibility/1.0/">
	<!ENTITY ns_ai "http://ns.adobe.com/AdobeIllustrator/10.0/">
	<!ENTITY ns_graphs "http://ns.adobe.com/Graphs/1.0/">
	<!ENTITY ns_vars "http://ns.adobe.com/Variables/1.0/">
	<!ENTITY ns_imrep "http://ns.adobe.com/ImageReplacement/1.0/">
	<!ENTITY ns_sfw "http://ns.adobe.com/SaveForWeb/1.0/">
	<!ENTITY ns_custom "http://ns.adobe.com/GenericCustomNamespace/1.0/">
	<!ENTITY ns_adobe_xpath "http://ns.adobe.com/XPath/1.0/">
]>
<svg version="1.0" id="Layer_1" xmlns:x="&ns_extend;" xmlns:i="&ns_ai;" xmlns:graph="&ns_graphs;"
	 xmlns="http://www.w3.org/2000/svg" xmlns:xlink="http://www.w3.org/1999/xlink" xmlns:a="http://ns.adobe.com/AdobeSVGViewerExtensions/3.0/"
	 x="0px" y="0px" width="1400px" height="980px" viewBox="0 0 1400 980" enable-background="new 0 0 1400 980" xml:space="preserve"
	>
<metadata>
	<sfw  xmlns="&ns_sfw;">
		<slices></slices>
		<sliceSourceBounds  y="-878.19" x="59.619" height="776.381" width="1280.762" bottomLeftOrigin="true"></sliceSourceBounds>
	</sfw>
</metadata>
<path d="M130.495,199.874c-2.324-1.162-4.88-2.091-7.553-2.789c-3.602-0.929-7.32-1.394-11.27-1.394
	c-12.2,0-23.354,4.996-31.372,13.013s-13.013,19.055-13.013,31.371c0,12.2,4.996,23.238,13.013,31.255s19.171,13.013,31.372,13.013
	c12.2,0,23.354-4.996,31.371-13.013c5.345-5.345,9.295-12.084,11.387-19.636h7.901c-2.208,9.644-7.088,18.358-13.827,25.097
	c-9.528,9.411-22.425,15.221-36.832,15.221c-14.408,0-27.421-5.81-36.833-15.221c-9.411-9.412-15.221-22.425-15.221-36.716
	c0-14.407,5.81-27.42,15.221-36.832c9.412-9.411,22.425-15.221,36.833-15.221c4.531,0,8.946,0.581,13.246,1.743
	c3.718,0.93,7.32,2.324,10.689,4.067L130.495,199.874z M283.982,252.159c-3.37,0-6.391-1.395-8.598-3.486
	c-2.208-2.208-3.486-5.345-3.486-8.598c0-3.369,1.278-6.39,3.486-8.598c0.581-0.581,1.278-1.162,1.859-1.627l-11.619-42.758
	l-69.25,47.173c0.697,1.743,1.046,3.718,1.046,5.809c0,3.021-0.813,5.926-2.324,8.366l8.831,6.855l5.809-1.511
	c0.93-0.349,1.976,0.349,2.324,1.278c0.232,1.045-0.348,2.091-1.394,2.44l-13.246,3.486c-1.046,0.349-2.091-0.349-2.324-1.278
	c-0.349-1.045,0.232-2.091,1.278-2.44l2.905-0.697l-6.506-5.112c0,0.116-0.116,0.232-0.232,0.232
	c-2.905,3.021-7.088,4.88-11.619,4.88c-4.647,0-8.714-1.859-11.735-4.88c-2.091-2.091-3.602-4.764-4.415-7.668h-41.596
	c-0.581,1.743-1.626,3.253-2.905,4.647c-2.208,2.091-5.229,3.486-8.598,3.486c-3.37,0-6.391-1.395-8.598-3.486
	c-2.208-2.208-3.602-5.345-3.602-8.598c0-3.369,1.395-6.39,3.602-8.598c2.208-2.208,5.229-3.602,8.598-3.602
	c1.626,0,3.137,0.349,4.531,0.813l43.571-51.356l-3.137-11.387l-8.25,0.697c-0.581,0-1.046,0.116-1.51,0.116
	c-4.416,0-8.482-1.743-11.503-4.415c-3.021-2.789-5.112-6.506-5.345-10.573c-0.116-0.349-0.116-0.813-0.116-1.162
	c0-1.51,0.697-2.904,1.743-3.834c0.93-0.813,2.208-1.278,3.486-1.278h35.787c3.95,0,7.668,0.697,10.341,2.324
	c2.905,1.859,4.647,4.531,4.647,8.481c0,1.627-0.232,3.253-1.278,4.764c-1.045,1.626-2.788,2.672-5.577,2.905l-14.64,1.278
	l2.44,8.714l91.79-12.316l-5.345-19.52h-9.295c-2.092,0-3.834-1.743-3.834-3.951c0-2.091,1.743-3.834,3.834-3.834H275.5
	c4.764,0,9.063,1.976,12.2,5.113c3.137,3.021,4.997,7.32,4.997,12.083s-1.859,9.063-4.997,12.2c-3.137,3.137-7.436,4.996-12.2,4.996
	c-2.091,0-3.834-1.743-3.834-3.834s1.743-3.834,3.834-3.834c2.672,0,4.996-1.046,6.739-2.789c1.743-1.743,2.788-4.067,2.788-6.739
	c0-2.556-1.045-4.996-2.788-6.739c-1.743-1.627-4.067-2.672-6.739-2.672h-14.292l5.926,21.611c0,0.116,0.116,0.232,0.116,0.348
	l4.183,15.57c0.116,0.116,0.116,0.349,0.232,0.465l13.014,47.754c3.137,0.116,5.925,1.51,7.901,3.602
	c2.208,2.208,3.602,5.229,3.602,8.598c0,3.253-1.394,6.391-3.602,8.598C290.372,250.765,287.352,252.159,283.982,252.159
	L283.982,252.159z M122.013,233.685c0.581,0.813,0.929,1.743,1.278,2.556h41.48c0.697-3.021,2.208-5.81,4.415-7.901
	c1.046-1.162,2.324-2.091,3.718-2.789l-10.689-39.272L122.013,233.685z M284.679,198.944c11.154,0.116,21.146,4.764,28.466,11.967
	c7.436,7.436,11.968,17.777,11.968,29.164c0,11.271-4.532,21.611-11.968,29.048c-7.436,7.436-17.777,12.083-29.164,12.083
	c-11.271,0-21.611-4.647-29.047-12.083c-7.437-7.437-12.084-17.777-12.084-29.048c0-7.668,2.091-14.872,5.81-21.03
	c3.37-5.693,8.133-10.573,13.827-14.059l1.045,3.834c-4.647,3.137-8.714,7.32-11.619,12.2c-3.253,5.577-5.112,12.084-5.112,19.055
	c0,10.225,4.066,19.52,10.805,26.259c6.855,6.855,16.15,10.922,26.375,10.922c10.341,0,19.636-4.067,26.375-10.922
	c6.739-6.739,10.922-16.034,10.922-26.259c0-10.341-4.183-19.636-10.922-26.375c-6.274-6.391-14.988-10.457-24.516-10.922
	L284.679,198.944z M180.34,223.46c0.116,0,0.349,0,0.581,0c4.299,0,8.25,1.743,11.154,4.416l71.34-48.684l-2.788-9.992
	l-91.791,12.316L180.34,223.46z M261.673,201.733c-6.274,3.602-11.503,8.714-15.337,14.872c-4.183,6.739-6.623,14.756-6.623,23.47
	c0,12.2,4.996,23.238,13.013,31.255c8.018,8.017,19.055,13.013,31.255,13.013c12.316,0,23.354-4.996,31.371-13.013
	s13.013-19.055,13.013-31.255c0-12.316-4.996-23.354-13.013-31.371s-19.055-13.013-31.371-13.013h-0.116l-2.091-7.668h0.232
	c0.813,0,1.51,0,1.975,0c14.408,0,27.421,5.81,36.832,15.221c9.412,9.412,15.221,22.425,15.221,36.832
	c0,14.292-5.809,27.305-15.221,36.716c-9.411,9.411-22.424,15.221-36.832,15.221c-14.292,0-27.305-5.81-36.716-15.221
	c-9.411-9.412-15.221-22.425-15.221-36.716c0-10.108,2.789-19.52,7.785-27.537c4.88-7.785,11.619-14.059,19.752-18.358
	L261.673,201.733z M145.948,217.418c1.975,2.905,3.602,6.274,4.764,9.76c0.232,0.465,0.349,0.93,0.465,1.395h-4.067v-0.232
	c-0.929-2.789-2.208-5.461-3.718-7.901L145.948,217.418z M151.061,251.694c-1.859,6.623-5.577,12.665-10.341,17.429
	c-7.436,7.436-17.661,12.083-29.047,12.083c-11.387,0-21.611-4.647-29.048-12.083c-7.436-7.437-12.083-17.777-12.083-29.048
	c0-11.386,4.647-21.728,12.083-29.164c7.437-7.436,17.661-11.967,29.048-11.967c3.253,0,6.506,0.348,9.644,1.045
	c2.44,0.581,4.764,1.395,7.087,2.44l-2.556,3.021c-1.743-0.697-3.602-1.278-5.461-1.743c-2.789-0.581-5.693-0.93-8.714-0.93
	c-10.341,0-19.636,4.183-26.375,10.922c-6.739,6.739-10.922,16.034-10.922,26.375c0,10.225,4.183,19.52,10.922,26.259
	c6.739,6.855,16.034,10.922,26.375,10.922c10.341,0,19.636-4.067,26.375-10.922c4.066-4.067,7.204-9.063,9.063-14.64H151.061z
	 M154.546,228.573c-0.349-1.162-0.697-2.208-1.046-3.37c-1.394-3.718-3.137-7.204-5.345-10.341l5.112-6.042
	c3.137,4.183,5.693,8.831,7.436,13.827c0.697,1.975,1.278,3.95,1.743,5.926H154.546z"/>
<path d="M1134.841,199.874c-2.323-1.162-4.88-2.091-7.552-2.789c-3.603-0.929-7.32-1.394-11.271-1.394
	c-12.316,0-23.354,4.996-31.372,13.013c-8.017,8.017-13.013,19.055-13.013,31.371c0,12.2,4.996,23.238,13.013,31.255
	c8.018,8.017,19.056,13.013,31.372,13.013c12.199,0,23.354-4.996,31.371-13.013c5.345-5.345,9.295-12.084,11.387-19.636h7.9
	c-2.207,9.644-7.087,18.358-13.942,25.097c-9.412,9.411-22.425,15.221-36.716,15.221c-14.408,0-27.421-5.81-36.833-15.221
	c-9.411-9.412-15.221-22.425-15.221-36.716c0-14.407,5.81-27.42,15.221-36.832c9.412-9.411,22.425-15.221,36.833-15.221
	c4.531,0,8.946,0.581,13.245,1.743c3.718,0.93,7.32,2.324,10.689,4.067L1134.841,199.874z M1116.019,252.159
	c-3.37,0-6.391-1.395-8.599-3.486c-2.207-2.208-3.602-5.345-3.602-8.598c0-3.369,1.395-6.39,3.602-8.598
	c2.208-2.208,5.229-3.602,8.599-3.602c1.626,0,3.137,0.349,4.531,0.813l43.571-51.356l-3.138-11.387l-8.249,0.697
	c-0.581,0-1.046,0.116-1.511,0.116c-4.531,0-8.481-1.743-11.503-4.415c-3.021-2.789-5.112-6.506-5.461-10.573
	c0-0.349,0-0.813,0-1.162c0-1.51,0.697-2.904,1.743-3.834c0.93-0.813,2.207-1.278,3.485-1.278h35.787
	c3.95,0,7.668,0.697,10.341,2.324c2.904,1.859,4.647,4.531,4.647,8.481c0,1.627-0.232,3.253-1.278,4.764
	c-1.046,1.626-2.788,2.672-5.577,2.905l-14.64,1.278l2.323,8.714l91.906-12.316l-6.158-22.192c-0.465-1.743,0.232-3.602,1.743-4.532
	l12.316-6.971c0-0.116,0-0.116,0-0.232c0-2.208,0.93-4.299,2.323-5.693c1.511-1.51,3.486-2.44,5.811-2.44
	c2.207,0,4.182,0.93,5.692,2.44c1.395,1.395,2.324,3.486,2.324,5.693s-0.93,4.299-2.324,5.693c-1.511,1.51-3.485,2.44-5.692,2.44
	c-1.627,0-3.138-0.465-4.3-1.278l-9.76,5.577l6.507,23.587c0,0.116,0.116,0.232,0.116,0.348l3.253,12.2
	c0.116,0.232,0.232,0.581,0.349,0.93l13.827,50.659c3.137,0.116,5.926,1.51,7.9,3.602c2.208,2.208,3.602,5.229,3.602,8.598
	c0,3.253-1.394,6.391-3.602,8.598c-2.207,2.091-5.229,3.486-8.598,3.486c-3.37,0-6.391-1.395-8.599-3.486
	c-2.207-2.208-3.485-5.345-3.485-8.598c0-3.369,1.278-6.39,3.485-8.598c0.581-0.581,1.162-1.162,1.859-1.627l-13.13-47.986
	c-13.478,1.975-29.279,9.876-43.455,20.101c-10.922,8.018-20.914,17.429-28.001,26.492c2.904,3.021,4.764,7.087,4.764,11.619
	c0,3.021-0.813,5.926-2.324,8.366l8.831,6.855l5.693-1.511c1.045-0.349,2.091,0.349,2.439,1.278c0.232,1.045-0.349,2.091-1.395,2.44
	l-13.245,3.486c-1.046,0.349-2.092-0.349-2.44-1.278c-0.232-1.045,0.349-2.091,1.395-2.44l2.904-0.697l-6.506-5.112
	c0,0.116-0.116,0.232-0.232,0.232c-3.021,3.021-7.088,4.88-11.735,4.88c-4.531,0-8.599-1.859-11.619-4.88
	c-2.092-2.091-3.718-4.764-4.415-7.668h-41.597c-0.696,1.743-1.626,3.253-2.904,4.647
	C1122.408,250.765,1119.388,252.159,1116.019,252.159L1116.019,252.159z M1126.359,233.685c0.465,0.813,0.93,1.743,1.161,2.556
	h41.597c0.697-3.021,2.207-5.81,4.415-7.901c1.046-1.162,2.324-2.091,3.718-2.789l-10.689-39.272L1126.359,233.685z
	 M1289.025,198.944c11.153,0.116,21.146,4.764,28.466,11.967c7.437,7.436,11.968,17.777,11.968,29.164
	c0,11.271-4.531,21.611-11.968,29.048c-7.552,7.436-17.776,12.083-29.163,12.083s-21.611-4.647-29.048-12.083
	c-7.437-7.437-12.084-17.777-12.084-29.048c0-7.668,2.092-14.872,5.81-21.03c3.369-5.693,8.134-10.573,13.827-14.059l1.046,3.834
	c-4.765,3.137-8.715,7.32-11.619,12.2c-3.254,5.577-5.229,12.084-5.229,19.055c0,10.225,4.183,19.52,10.922,26.259
	c6.738,6.855,16.15,10.922,26.375,10.922c10.341,0,19.636-4.067,26.375-10.922c6.738-6.739,10.922-16.034,10.922-26.259
	c0-10.341-4.184-19.636-10.922-26.375c-6.391-6.391-14.988-10.457-24.633-10.922L1289.025,198.944z M1184.687,223.46
	c0.116,0,0.349,0,0.465,0c1.975,0,3.718,0.349,5.345,0.93c7.668-9.992,18.241-20.101,30.093-28.583
	c14.641-10.689,31.255-18.939,45.896-21.379l-1.511-5.229l-91.79,12.316L1184.687,223.46z M1265.903,201.733
	c-6.158,3.602-11.387,8.714-15.222,14.872c-4.182,6.739-6.622,14.756-6.622,23.47c0,12.2,4.88,23.238,12.897,31.255
	c8.017,8.017,19.171,13.013,31.371,13.013c12.316,0,23.354-4.996,31.371-13.013c8.017-8.017,13.013-19.055,13.013-31.255
	c0-12.316-4.996-23.354-13.013-31.371c-8.018-8.017-19.055-13.013-31.371-13.013h-0.116l-2.092-7.668h0.116c0.93,0,1.627,0,2.092,0
	c14.407,0,27.42,5.81,36.832,15.221c9.411,9.412,15.221,22.425,15.221,36.832c0,14.292-5.81,27.305-15.221,36.716
	c-9.412,9.411-22.425,15.221-36.832,15.221c-14.292,0-27.305-5.81-36.717-15.221c-9.411-9.412-15.337-22.425-15.337-36.716
	c0-10.108,2.905-19.52,7.901-27.537c4.88-7.785,11.619-14.059,19.636-18.358L1265.903,201.733z M1150.294,217.418
	c1.976,2.905,3.603,6.274,4.764,9.76c0.116,0.465,0.349,0.93,0.465,1.395h-4.066v-0.232c-0.93-2.789-2.208-5.461-3.718-7.901
	L1150.294,217.418z M1155.406,251.694c-1.975,6.623-5.577,12.665-10.341,17.429c-7.436,7.436-17.776,12.083-29.047,12.083
	c-11.387,0-21.612-4.647-29.164-12.083c-7.437-7.437-11.968-17.777-11.968-29.048c0-11.386,4.531-21.728,11.968-29.164
	c7.552-7.436,17.777-11.967,29.164-11.967c3.253,0,6.506,0.348,9.644,1.045c2.439,0.581,4.764,1.395,7.088,2.44l-2.673,3.021
	c-1.743-0.697-3.485-1.278-5.345-1.743c-2.789-0.581-5.693-0.93-8.714-0.93c-10.342,0-19.637,4.183-26.376,10.922
	c-6.738,6.739-10.922,16.034-10.922,26.375c0,10.225,4.184,19.52,10.922,26.259c6.739,6.855,16.034,10.922,26.376,10.922
	c10.225,0,19.636-4.067,26.375-10.922c4.066-4.067,7.203-9.063,9.063-14.64H1155.406z M1158.893,228.573
	c-0.349-1.162-0.697-2.208-1.046-3.37c-1.395-3.718-3.138-7.204-5.345-10.341l5.112-6.042c3.137,4.183,5.693,8.831,7.437,13.827
	c0.696,1.975,1.277,3.95,1.742,5.926H1158.893z"/>
<path d="M261.673,483.145c-6.274,3.602-11.503,8.715-15.337,14.756c-4.183,6.855-6.623,14.873-6.623,23.471
	c0,12.316,4.996,23.354,13.013,31.371c8.018,8.018,19.055,13.014,31.255,13.014c12.316,0,23.354-4.996,31.371-13.014
	c8.017-8.017,13.013-19.055,13.013-31.371c0-12.199-4.996-23.354-13.013-31.371c-8.017-8.017-19.055-12.897-31.371-12.897h-0.116
	l-2.091-7.668h0.232c0.813,0,1.51-0.116,1.975-0.116c14.408,0,27.421,5.81,36.832,15.337c9.412,9.411,15.221,22.425,15.221,36.716
	c0,14.408-5.809,27.421-15.221,36.832c-9.411,9.412-22.424,15.222-36.832,15.222c-14.292,0-27.305-5.81-36.716-15.222
	c-9.411-9.411-15.221-22.424-15.221-36.832c0-10.108,2.789-19.52,7.785-27.537c4.88-7.668,11.619-14.059,19.752-18.358
	L261.673,483.145z M111.672,562.503c-11.387,0-21.611-4.532-29.048-12.084c-7.436-7.437-12.083-17.661-12.083-29.048
	s4.647-21.611,12.083-29.047c7.437-7.437,17.661-12.084,29.048-12.084c9.179,0,17.661,3.021,24.516,8.133l-3.253,2.44
	c-6.042-4.183-13.362-6.739-21.263-6.739c-10.341,0-19.636,4.183-26.375,10.922c-6.739,6.739-10.922,16.15-10.922,26.375
	c0,10.341,4.183,19.637,10.922,26.375c6.739,6.739,16.034,10.922,26.375,10.922c10.341,0,19.636-4.183,26.375-10.922
	c4.066-4.066,7.204-9.063,9.063-14.756h3.951c-1.859,6.739-5.577,12.665-10.341,17.429
	C133.284,557.971,123.059,562.503,111.672,562.503L111.672,562.503z M150.131,506.731c0.349,1.046,0.697,2.091,1.046,3.253h-4.067
	c0-0.232-0.116-0.581-0.232-0.813L150.131,506.731z M111.672,573.425c-14.408,0-27.421-5.81-36.833-15.222
	c-9.411-9.411-15.221-22.424-15.221-36.832c0-14.291,5.81-27.305,15.221-36.716c9.412-9.527,22.425-15.337,36.833-15.337
	c12.781,0,24.399,4.647,33.462,12.2l-6.274,4.88c-7.552-5.926-16.963-9.295-27.188-9.295c-12.2,0-23.354,4.88-31.372,12.897
	c-8.017,8.018-13.013,19.172-13.013,31.371c0,12.316,4.996,23.354,13.013,31.371c8.017,8.018,19.171,13.014,31.372,13.014
	c12.2,0,23.354-4.996,31.371-13.014c5.345-5.345,9.295-12.083,11.387-19.752h7.901c-2.208,9.76-7.088,18.358-13.827,25.213
	C138.977,567.615,126.08,573.425,111.672,573.425L111.672,573.425z M159.078,499.992c1.394,3.137,2.556,6.507,3.37,9.992h-7.901
	c-0.465-1.858-1.046-3.602-1.743-5.229L159.078,499.992z M275.5,415.754c4.764,0,9.063,1.859,12.2,4.997
	c3.137,3.137,4.997,7.436,4.997,12.2s-1.859,9.063-4.997,12.084c-3.137,3.137-7.436,5.112-12.2,5.112
	c-2.091,0-3.834-1.743-3.834-3.834c0-2.208,1.743-3.95,3.834-3.95c2.672,0,4.996-1.046,6.739-2.673
	c1.743-1.743,2.788-4.183,2.788-6.739c0-2.672-1.045-4.996-2.788-6.739c-1.743-1.743-4.067-2.789-6.739-2.789h-14.292l5.926,21.612
	c0,0.116,0.116,0.349,0.116,0.464l17.429,63.788c3.137,0.116,5.925,1.395,7.901,3.486c2.208,2.207,3.602,5.229,3.602,8.598
	c0,3.37-1.394,6.391-3.602,8.599c-2.208,2.207-5.229,3.602-8.598,3.602s-6.391-1.395-8.598-3.602
	c-2.208-2.208-3.486-5.229-3.486-8.599c0-3.369,1.278-6.391,3.486-8.598c0.581-0.581,1.278-1.046,1.859-1.511l-15.802-57.979
	l-65.996,60.187c1.278,2.439,1.975,5.112,1.975,7.9c0,3.138-0.813,5.926-2.324,8.482l8.831,6.738l5.809-1.51
	c0.93-0.232,1.976,0.349,2.324,1.394c0.232,1.046-0.348,2.092-1.394,2.324l-13.246,3.602c-1.046,0.232-2.091-0.349-2.324-1.394
	c-0.349-1.046,0.232-2.092,1.278-2.324l2.905-0.813l-6.506-4.996c0,0.116-0.116,0.116-0.232,0.232
	c-2.905,3.021-7.088,4.88-11.619,4.88c-4.647,0-8.714-1.859-11.735-4.88c-2.091-2.092-3.602-4.764-4.415-7.784h-41.596
	c-0.581,1.742-1.626,3.369-2.905,4.647c-2.208,2.207-5.229,3.602-8.598,3.602c-3.37,0-6.391-1.395-8.598-3.602
	c-2.208-2.208-3.602-5.229-3.602-8.599c0-3.369,1.395-6.391,3.602-8.598c2.208-2.208,5.229-3.486,8.598-3.486
	c2.556,0,4.88,0.697,6.855,2.092l46.127-34.857l-10.341-37.878l-9.063,0.697c-0.465,0.116-0.93,0.116-1.394,0.116
	c-4.532,0-8.482-1.743-11.503-4.416c-3.021-2.789-5.112-6.506-5.461-10.457c0-0.465,0-0.813,0-1.278
	c0-1.511,0.697-2.789,1.743-3.718c0.93-0.813,2.208-1.395,3.486-1.395h35.787c3.95,0,7.668,0.697,10.341,2.44
	c2.905,1.743,4.647,4.415,4.647,8.366c0,1.743-0.232,3.253-1.278,4.764c-1.162,1.626-2.789,2.789-5.577,3.021l-13.943,1.162
	l1.162,4.299l95.159,0.232l-5.112-19.056h-9.295c-2.092,0-3.834-1.743-3.834-3.834s1.743-3.834,3.834-3.834H275.5z M123.175,517.537
	c0,0,0,0.116,0.116,0.116h41.48c0.697-3.021,2.208-5.81,4.415-8.018c1.046-1.045,2.324-1.975,3.718-2.788l-6.042-22.425
	L123.175,517.537z M284.679,480.24c11.154,0.232,21.146,4.764,28.466,12.084c7.436,7.436,11.968,17.66,11.968,29.047
	s-4.532,21.611-11.968,29.048c-7.436,7.552-17.777,12.084-29.164,12.084c-11.271,0-21.611-4.532-29.047-12.084
	c-7.437-7.437-12.084-17.661-12.084-29.048c0-7.668,2.091-14.872,5.81-20.914c3.37-5.81,8.133-10.573,13.827-14.059l1.045,3.834
	c-4.647,3.137-8.714,7.204-11.619,12.084c-3.253,5.577-5.112,12.084-5.112,19.055c0,10.341,4.066,19.637,10.805,26.375
	c6.855,6.739,16.15,10.922,26.375,10.922c10.341,0,19.636-4.183,26.375-10.922c6.739-6.738,10.922-16.034,10.922-26.375
	c0-10.225-4.183-19.636-10.922-26.375c-6.274-6.274-14.988-10.341-24.516-10.806L284.679,480.24z M180.34,504.872
	c0.116,0,0.349,0,0.581,0c3.486,0,6.739,1.046,9.412,2.905l63.323-57.747l-88.304-0.116l7.32,26.724
	c0,0.232,0.116,0.465,0.116,0.581L180.34,504.872z"/>
<path d="M261.673,787.911c-6.274,3.602-11.503,8.714-15.337,14.756c-4.183,6.855-6.623,14.872-6.623,23.471
	c0,12.316,4.996,23.354,13.013,31.371c8.018,8.018,19.055,13.014,31.255,13.014c12.316,0,23.354-4.996,31.371-13.014
	c8.017-8.017,13.013-19.055,13.013-31.371c0-12.2-4.996-23.238-13.013-31.371c-8.017-8.018-19.055-12.897-31.371-12.897h-0.116
	l-2.091-7.669h0.232c0.813,0,1.51,0,1.975,0c14.408,0,27.421,5.81,36.832,15.222c9.412,9.411,15.221,22.424,15.221,36.716
	c0,14.407-5.809,27.421-15.221,36.832c-9.411,9.411-22.424,15.221-36.832,15.221c-14.292,0-27.305-5.81-36.716-15.221
	c-9.411-9.411-15.221-22.425-15.221-36.832c0-10.108,2.789-19.521,7.785-27.421c4.88-7.785,11.619-14.175,19.752-18.475
	L261.673,787.911z M111.672,867.269c-11.387,0-21.611-4.531-29.048-11.968c-7.436-7.436-12.083-17.776-12.083-29.163
	c0-11.271,4.647-21.611,12.083-29.048c1.743-1.858,3.718-3.485,5.926-4.88l1.162,3.834c-1.511,1.162-3.021,2.44-4.416,3.719
	c-6.739,6.738-10.922,16.15-10.922,26.375c0,10.341,4.183,19.636,10.922,26.375c6.739,6.739,16.034,10.922,26.375,10.922
	c10.341,0,19.636-4.183,26.375-10.922c4.066-4.066,7.204-9.063,9.063-14.64h3.951c-1.859,6.623-5.577,12.548-10.341,17.428
	C133.284,862.737,123.059,867.269,111.672,867.269L111.672,867.269z M147.11,814.751c-0.464-1.627-1.162-3.253-1.859-4.764
	l2.905-2.789c1.278,2.44,2.208,4.88,3.021,7.553H147.11z M129.333,793.372c-5.229-2.905-11.271-4.531-17.661-4.531l-1.162-3.835
	c0.349,0,0.697,0,1.162,0c7.436,0,14.523,2.092,20.565,5.577L129.333,793.372z M111.672,878.19c-14.408,0-27.421-5.81-36.833-15.221
	c-9.411-9.411-15.221-22.425-15.221-36.832c0-14.292,5.81-27.305,15.221-36.716c3.137-3.138,6.507-5.81,10.225-8.018l2.44,7.553
	c-2.556,1.742-4.996,3.718-7.204,5.81c-8.017,8.133-13.013,19.171-13.013,31.371c0,12.316,4.996,23.354,13.013,31.371
	c8.017,8.018,19.171,13.014,31.372,13.014c12.2,0,23.354-4.996,31.371-13.014c5.345-5.345,9.295-12.084,11.387-19.636h7.901
	c-2.208,9.644-7.088,18.241-13.827,25.097C138.977,872.381,126.08,878.19,111.672,878.19L111.672,878.19z M154.546,814.751
	c-0.93-3.485-2.324-6.739-3.951-9.876l5.693-5.461c2.789,4.647,4.88,9.876,6.158,15.337H154.546z M134.678,788.26
	c-6.739-4.066-14.64-6.391-23.005-6.391c-0.813,0-1.511,0-2.208,0l-2.44-7.553c1.511-0.116,3.021-0.116,4.648-0.116
	c10.573,0,20.449,3.138,28.699,8.599L134.678,788.26z M95.173,762.582l16.499,51.472l0,0c2.091,0,3.95,0.465,5.693,1.395
	l44.849-42.99l-1.743-6.274C159.659,763.047,122.826,762.698,95.173,762.582L95.173,762.582z M104.352,816.494l-17.196-53.912
	c-1.627,0-3.253,0-4.764,0H79.72c-2.091,0-3.834-1.743-3.834-3.835c0-2.091,1.743-3.834,3.834-3.834h2.672
	c22.309,0,59.025,0,76.221,4.183l-1.975-6.971l-8.25,0.696c-0.581,0-1.046,0-1.51,0c-4.416,0-8.482-1.626-11.503-4.415
	c-3.021-2.672-5.112-6.391-5.345-10.457c-0.116-0.349-0.116-0.813-0.116-1.278c0-1.51,0.697-2.788,1.743-3.718
	c0.93-0.813,2.208-1.278,3.486-1.278h35.787c3.95,0,7.668,0.581,10.341,2.324c2.905,1.743,4.647,4.531,4.647,8.365
	c0,1.743-0.232,3.37-1.278,4.88c-1.045,1.627-2.788,2.673-5.577,2.905l-14.64,1.278l3.486,12.78l0,0l0,0l11.967,43.688
	c15.454-1.511,26.027-14.988,36.716-28.466c11.735-14.873,23.354-29.629,41.944-31.953l-5.926-21.844
	c-0.697-1.858,0.116-3.834,1.976-4.764c10.573-4.996,15.802-9.063,17.428-12.432c0.465-1.046,0.349-1.976-0.349-2.789
	c-1.045-1.395-3.021-2.672-5.693-3.718c-7.785-3.138-19.403-4.299-28.931-3.37c-0.349,1.278-1.045,2.324-1.975,3.254
	c-1.395,1.395-3.486,2.323-5.693,2.323s-4.299-0.929-5.693-2.323c-1.51-1.511-2.44-3.486-2.44-5.81c0-2.208,0.93-4.183,2.44-5.693
	c1.395-1.395,3.486-2.324,5.693-2.324s4.299,0.93,5.693,2.324c0.232,0.232,0.465,0.465,0.697,0.697
	c10.806-1.162,24.167,0.232,32.998,3.834c3.95,1.511,7.087,3.602,9.063,6.158c2.324,3.137,2.905,6.623,1.162,10.689
	c-2.091,4.415-7.668,9.411-18.242,14.756l6.39,23.238c0,0.232,0.116,0.465,0.116,0.697l4.183,15.337
	c0.116,0.116,0.232,0.349,0.232,0.581l13.014,47.754c3.137,0.116,5.925,1.511,7.901,3.485c2.208,2.208,3.602,5.229,3.602,8.599
	c0,3.369-1.394,6.391-3.602,8.598c-2.208,2.208-5.229,3.603-8.598,3.603s-6.391-1.395-8.598-3.603
	c-2.208-2.207-3.486-5.229-3.486-8.598c0-3.37,1.278-6.391,3.486-8.599c0.581-0.58,1.278-1.045,1.859-1.51l-12.316-44.966
	c-14.64,1.278-23.471,13.246-32.649,25.678c-9.179,12.549-18.823,25.563-34.857,30.907c-0.232,2.556-1.046,4.88-2.324,6.971
	l8.831,6.855l5.809-1.627c0.93-0.232,1.976,0.349,2.324,1.395c0.232,1.046-0.348,2.092-1.394,2.324l-13.246,3.602
	c-1.046,0.232-2.091-0.349-2.324-1.395c-0.349-1.046,0.232-2.091,1.278-2.323l2.905-0.813l-6.506-4.996
	c0,0.116-0.116,0.116-0.232,0.232c-2.905,3.021-7.088,4.88-11.619,4.88c-4.647,0-8.714-1.859-11.735-4.88
	c-2.091-2.092-3.602-4.764-4.415-7.785h-41.596c-0.581,1.859-1.626,3.369-2.905,4.647c-2.208,2.208-5.229,3.603-8.598,3.603
	c-3.37,0-6.391-1.395-8.598-3.603c-2.208-2.207-3.602-5.229-3.602-8.598c0-3.37,1.395-6.391,3.602-8.599
	C103.423,817.19,103.887,816.843,104.352,816.494L104.352,816.494z M270.853,729.235h51.356c2.091,0,3.834,1.743,3.834,3.95v33.812
	c0,2.207-1.743,3.834-3.834,3.834h-42.99c-1.976,0-3.486-1.395-3.834-3.253l-8.25-33.579c-0.465-1.976,0.813-4.066,2.789-4.647
	c0.349,0,0.697,0,0.93,0V729.235z M318.374,737.02h-42.642l6.507,26.143h36.135V737.02z M122.594,820.909
	c0.232,0.581,0.464,1.046,0.697,1.511h41.48c0.697-3.021,2.208-5.81,4.415-7.901c1.046-1.162,2.324-2.092,3.718-2.905l-8.366-30.674
	L122.594,820.909z M284.679,785.006c11.154,0.232,21.146,4.765,28.466,12.084c7.436,7.437,11.968,17.777,11.968,29.048
	c0,11.387-4.532,21.728-11.968,29.163c-7.436,7.437-17.777,11.968-29.164,11.968c-11.271,0-21.611-4.531-29.047-11.968
	c-7.437-7.436-12.084-17.776-12.084-29.163c0-7.669,2.091-14.756,5.81-20.914c3.37-5.81,8.133-10.573,13.827-14.06l1.045,3.835
	c-4.647,3.137-8.714,7.319-11.619,12.199c-3.253,5.461-5.112,11.968-5.112,18.939c0,10.341,4.066,19.636,10.805,26.375
	c6.855,6.739,16.15,10.922,26.375,10.922c10.341,0,19.636-4.183,26.375-10.922c6.739-6.739,10.922-16.034,10.922-26.375
	c0-10.225-4.183-19.637-10.922-26.375c-6.274-6.274-14.988-10.341-24.516-10.806L284.679,785.006z M191.03,813.124
	c0.581,0.349,1.046,0.813,1.511,1.395c1.51,1.511,2.789,3.253,3.602,5.229c13.362-4.996,21.844-16.499,29.977-27.537
	c9.993-13.594,19.636-26.607,36.833-28.699l-2.324-8.481c-16.15,1.511-27.073,15.337-37.994,29.048
	C213.222,796.044,203.927,807.896,191.03,813.124L191.03,813.124z"/>
<path d="M596.417,787.911c-6.158,3.602-11.503,8.714-15.221,14.756c-4.299,6.855-6.739,14.872-6.739,23.471
	c0,12.316,4.997,23.354,13.013,31.371c8.018,8.018,19.056,13.014,31.372,13.014c12.2,0,23.238-4.996,31.255-13.014
	c8.133-8.017,13.014-19.055,13.014-31.371c0-12.2-4.88-23.238-13.014-31.371c-8.017-8.018-19.055-12.897-31.255-12.897h-0.232
	l-2.091-7.669h0.232c0.813,0,1.51,0,2.091,0c14.292,0,27.305,5.81,36.716,15.222c9.412,9.411,15.221,22.424,15.221,36.716
	c0,14.407-5.81,27.421-15.221,36.832c-9.411,9.411-22.424,15.221-36.716,15.221c-14.408,0-27.421-5.81-36.832-15.221
	c-9.412-9.411-15.221-22.425-15.221-36.832c0-10.108,2.905-19.521,7.901-27.421c4.764-7.785,11.503-14.175,19.636-18.475
	L596.417,787.911z M446.416,867.269c-11.387,0-21.611-4.531-29.048-11.968c-7.436-7.436-12.083-17.776-12.083-29.163
	c0-11.271,4.647-21.611,12.083-29.048c7.437-7.436,17.661-12.084,29.048-12.084s21.611,4.648,29.047,12.084
	c4.88,4.88,8.482,10.922,10.457,17.661h-3.95c-1.859-5.693-4.996-10.806-9.179-14.988c-6.739-6.739-16.034-10.922-26.375-10.922
	c-10.225,0-19.636,4.183-26.375,10.922c-6.739,6.738-10.922,16.15-10.922,26.375c0,10.341,4.183,19.636,10.922,26.375
	c6.739,6.739,16.15,10.922,26.375,10.922c10.341,0,19.636-4.183,26.375-10.922c4.067-4.066,7.204-9.063,9.063-14.64h4.066
	c-1.975,6.623-5.577,12.548-10.457,17.428C468.027,862.737,457.802,867.269,446.416,867.269L446.416,867.269z M446.416,878.19
	c-14.292,0-27.305-5.81-36.716-15.221c-9.411-9.411-15.337-22.425-15.337-36.832c0-14.292,5.926-27.305,15.337-36.716
	c9.412-9.412,22.425-15.222,36.716-15.222c14.408,0,27.421,5.81,36.832,15.222c6.855,6.854,11.735,15.569,13.943,25.329h-7.901
	c-2.091-7.669-6.042-14.523-11.503-19.984c-8.017-8.018-19.055-12.897-31.371-12.897c-12.2,0-23.354,4.88-31.372,12.897
	c-8.017,8.133-12.897,19.171-12.897,31.371c0,12.316,4.88,23.354,12.897,31.371c8.017,8.018,19.171,13.014,31.372,13.014
	c12.316,0,23.354-4.996,31.371-13.014c5.345-5.345,9.412-12.084,11.387-19.636h8.017c-2.208,9.644-7.204,18.241-13.943,25.097
	C473.836,872.381,460.823,878.19,446.416,878.19L446.416,878.19z M618.841,838.338c-3.37,0-6.391-1.395-8.598-3.603
	c-2.208-2.207-3.602-5.229-3.602-8.598c0-3.37,1.394-6.391,3.602-8.599c0.581-0.58,1.162-1.045,1.859-1.51l-11.735-42.758
	l-69.133,47.173c0.581,1.743,0.93,3.718,0.93,5.693c0,3.137-0.813,5.926-2.208,8.481l8.83,6.855l5.693-1.627
	c1.046-0.232,2.092,0.349,2.324,1.395s-0.349,2.092-1.395,2.324l-13.246,3.602c-1.046,0.232-2.091-0.349-2.324-1.395
	c-0.349-1.046,0.349-2.091,1.394-2.323l2.905-0.813l-6.506-4.996c-0.116,0.116-0.232,0.116-0.232,0.232
	c-3.021,3.021-7.204,4.88-11.735,4.88c-4.531,0-8.714-1.859-11.735-4.88c-2.091-2.092-3.602-4.764-4.299-7.785h-41.712
	c-0.581,1.859-1.626,3.369-2.904,4.647c-2.208,2.208-5.229,3.603-8.598,3.603c-3.37,0-6.391-1.395-8.598-3.603
	c-2.208-2.207-3.486-5.229-3.486-8.598c0-3.37,1.278-6.391,3.486-8.599c2.208-2.207,5.229-3.485,8.598-3.485
	c3.369,0,6.39,1.278,8.598,3.485c1.394,1.395,2.44,3.021,3.021,4.881h41.48c0.697-3.021,2.324-5.81,4.415-7.901
	c1.162-1.162,2.44-2.092,3.834-2.905l-12.665-46.011c0-0.116,0-0.232-0.116-0.349l-3.602-13.129l-8.25,0.696
	c-0.465,0-1.045,0-1.51,0c-4.416,0-8.482-1.626-11.503-4.415c-3.021-2.672-4.996-6.391-5.345-10.457
	c-0.116-0.349-0.116-0.813-0.116-1.278c0-1.51,0.697-2.788,1.859-3.718c0.93-0.813,2.092-1.278,3.486-1.278h35.787
	c3.95,0,7.552,0.581,10.341,2.324c2.905,1.743,4.647,4.531,4.647,8.365c0,1.743-0.349,3.37-1.278,4.88
	c-1.162,1.627-2.905,2.673-5.577,2.905l-14.756,1.278l2.44,8.714l91.79-12.316l-5.345-19.636h-9.295
	c-2.092,0-3.834-1.743-3.834-3.834c0-2.092,1.743-3.835,3.834-3.835h31.604c4.764,0,9.063,1.976,12.084,4.996
	c3.137,3.138,5.112,7.437,5.112,12.2s-1.976,9.063-5.112,12.2c-3.021,3.021-7.32,4.996-12.084,4.996
	c-2.208,0-3.834-1.743-3.834-3.834c0-2.208,1.626-3.835,3.834-3.835c2.556,0,4.996-1.161,6.623-2.788
	c1.743-1.743,2.789-4.066,2.789-6.739c0-2.672-1.046-4.996-2.789-6.738c-1.627-1.743-4.067-2.789-6.623-2.789h-14.407l5.925,21.611
	c0.116,0.116,0.116,0.349,0.116,0.465l4.299,15.453c0,0.232,0.116,0.349,0.116,0.581l13.013,47.754
	c3.137,0.116,5.926,1.511,8.017,3.485c2.208,2.208,3.486,5.229,3.486,8.599c0,3.369-1.278,6.391-3.486,8.598
	C625.232,836.943,622.211,838.338,618.841,838.338L618.841,838.338z M619.539,785.006c11.038,0.232,21.03,4.765,28.35,12.084
	c7.437,7.437,12.084,17.777,12.084,29.048c0,11.387-4.647,21.728-12.084,29.163c-7.436,7.437-17.777,11.968-29.047,11.968
	c-11.387,0-21.728-4.531-29.164-11.968c-7.437-7.436-11.968-17.776-11.968-29.163c0-7.669,2.092-14.756,5.693-20.914
	c3.486-5.81,8.25-10.573,13.827-14.06l1.046,3.835c-4.648,3.137-8.598,7.319-11.503,12.199c-3.37,5.461-5.229,11.968-5.229,18.939
	c0,10.341,4.183,19.636,10.922,26.375c6.739,6.739,16.034,10.922,26.375,10.922c10.225,0,19.52-4.183,26.375-10.922
	c6.739-6.739,10.922-16.034,10.922-26.375c0-10.225-4.183-19.637-10.922-26.375c-6.39-6.274-15.104-10.341-24.632-10.806
	L619.539,785.006z M515.083,809.639c0.232,0,0.349,0,0.581,0c4.299,0,8.25,1.627,11.271,4.415l71.341-48.684l-2.789-10.108
	l-91.906,12.316L515.083,809.639z"/>
<path d="M931.16,787.911c-6.158,3.602-11.387,8.714-15.221,14.756c-4.3,6.855-6.739,14.872-6.739,23.471
	c0,12.316,4.996,23.354,13.013,31.371c8.018,8.018,19.172,13.014,31.372,13.014c12.199,0,23.354-4.996,31.371-13.014
	c8.017-8.017,13.013-19.055,13.013-31.371c0-12.2-4.996-23.238-13.013-31.371c-8.018-8.018-19.172-12.897-31.371-12.897h-0.232
	l-1.976-7.669h0.116c0.93,0,1.627,0,2.092,0c14.407,0,27.421,5.81,36.832,15.222c9.411,9.411,15.221,22.424,15.221,36.716
	c0,14.407-5.81,27.421-15.221,36.832s-22.425,15.221-36.832,15.221c-14.408,0-27.421-5.81-36.833-15.221
	c-9.411-9.411-15.221-22.425-15.221-36.832c0-10.108,2.905-19.521,7.901-27.421c4.764-7.785,11.619-14.175,19.636-18.475
	L931.16,787.911z M949.982,719.592c-1.51,1.51-3.485,2.323-5.81,2.323c-1.51,0-3.021-0.349-4.299-1.162l-9.644,5.461l6.507,23.587
	c0,0.116,0,0.349,0,0.465l4.299,15.453c0.116,0.232,0.116,0.349,0.116,0.581l13.129,47.754c3.021,0.116,5.81,1.511,7.901,3.485
	c2.208,2.208,3.602,5.229,3.602,8.599c0,3.369-1.394,6.391-3.602,8.598c-2.208,2.208-5.229,3.603-8.598,3.603
	c-3.37,0-6.391-1.395-8.599-3.603c-2.207-2.207-3.602-5.229-3.602-8.598c0-3.37,1.395-6.391,3.602-8.599
	c0.581-0.58,1.162-1.045,1.859-1.51l-11.735-42.758l-69.133,47.173c0.697,1.743,1.046,3.718,1.046,5.693
	c0,3.137-0.93,5.926-2.324,8.481l8.83,6.855l5.693-1.627c1.046-0.232,2.092,0.349,2.324,1.395c0.349,1.046-0.349,2.092-1.278,2.324
	l-13.361,3.602c-0.93,0.232-2.092-0.349-2.324-1.395s0.349-2.091,1.395-2.323l2.904-0.813l-6.507-4.996
	c-0.115,0.116-0.115,0.116-0.232,0.232c-3.021,3.021-7.087,4.88-11.734,4.88c-4.531,0-8.715-1.859-11.735-4.88
	c-2.092-2.092-3.603-4.764-4.299-7.785h-41.713c-0.581,1.859-1.51,3.369-2.904,4.647c-2.092,2.208-5.229,3.603-8.599,3.603
	c-3.253,0-6.39-1.395-8.598-3.603c-2.092-2.207-3.485-5.229-3.485-8.598c0-3.37,1.394-6.391,3.485-8.599
	c2.208-2.207,5.345-3.485,8.598-3.485c3.37,0,6.507,1.278,8.599,3.485c1.395,1.395,2.439,3.021,3.021,4.881h41.48
	c0.813-3.021,2.323-5.81,4.415-7.901c2.904-2.905,6.855-4.764,11.154-4.88l9.063-44.733l-20.333,2.673l5.693,20.682
	c0.581,1.975-0.697,4.066-2.673,4.647c-2.091,0.581-4.183-0.581-4.764-2.673l-6.623-24.051c-0.231-0.349-0.349-0.813-0.464-1.278
	c0-0.116,0-0.232,0-0.349l-3.486-12.432l-8.365,0.696c-0.465,0-0.93,0-1.511,0c-4.415,0-8.482-1.626-11.387-4.415
	c-3.137-2.672-5.112-6.391-5.461-10.457c0-0.349,0-0.813,0-1.278c0-1.51,0.581-2.788,1.743-3.718
	c0.93-0.813,2.207-1.278,3.485-1.278h35.787c3.95,0,7.668,0.581,10.341,2.324c2.904,1.743,4.647,4.531,4.647,8.365
	c0,1.743-0.232,3.37-1.278,4.88c-1.162,1.627-2.904,2.673-5.577,2.905l-14.64,1.278l2.439,8.714l91.674-12.316l-6.042-22.192
	c-0.581-1.742,0.116-3.718,1.743-4.647l12.316-6.971v-0.116c0-2.208,0.93-4.3,2.323-5.693c1.511-1.511,3.486-2.44,5.693-2.44
	c2.324,0,4.3,0.93,5.81,2.44c1.395,1.394,2.324,3.485,2.324,5.693C952.307,716.105,951.377,718.081,949.982,719.592L949.982,719.592
	z M866.907,763.743l-9.645,47.406c1.627,0.696,3.138,1.742,4.416,2.904l71.341-48.684l-2.789-10.108L866.907,763.743z
	 M781.158,867.269c-11.27,0-21.611-4.531-29.047-11.968c-7.437-7.436-12.084-17.776-12.084-29.163
	c0-11.271,4.647-21.611,12.084-29.048c7.436-7.436,17.777-12.084,29.047-12.084c11.387,0,21.728,4.648,29.164,12.084
	c4.764,4.88,8.482,10.922,10.457,17.661h-4.066c-1.859-5.693-4.996-10.806-9.179-14.988c-6.739-6.739-16.034-10.922-26.376-10.922
	c-10.225,0-19.52,4.183-26.259,10.922c-6.738,6.738-10.922,16.15-10.922,26.375c0,10.341,4.184,19.636,10.922,26.375
	c6.739,6.739,16.034,10.922,26.259,10.922c10.342,0,19.637-4.183,26.376-10.922c4.066-4.066,7.203-9.063,9.063-14.64h4.066
	c-1.975,6.623-5.577,12.548-10.341,17.428C802.886,862.737,792.545,867.269,781.158,867.269L781.158,867.269z M781.158,878.19
	c-14.291,0-27.304-5.81-36.716-15.221c-9.411-9.411-15.221-22.425-15.221-36.832c0-14.292,5.81-27.305,15.221-36.716
	c9.412-9.412,22.425-15.222,36.716-15.222c14.408,0,27.421,5.81,36.833,15.222c6.854,6.854,11.851,15.569,13.942,25.329h-7.901
	c-1.975-7.669-6.041-14.523-11.502-19.984c-8.018-8.018-19.056-12.897-31.372-12.897c-12.199,0-23.237,4.88-31.255,12.897
	c-8.017,8.133-13.013,19.171-13.013,31.371c0,12.316,4.996,23.354,13.013,31.371c8.018,8.018,19.056,13.014,31.255,13.014
	c12.316,0,23.354-4.996,31.372-13.014c5.461-5.345,9.411-12.084,11.502-19.636h7.901c-2.207,9.644-7.088,18.241-13.942,25.097
	C808.579,872.381,795.566,878.19,781.158,878.19L781.158,878.19z M954.281,785.006c11.038,0.232,21.147,4.765,28.351,12.084
	c7.437,7.437,12.084,17.777,12.084,29.048c0,11.387-4.647,21.728-12.084,29.163c-7.436,7.437-17.661,11.968-29.047,11.968
	c-11.387,0-21.611-4.531-29.048-11.968c-7.437-7.436-12.084-17.776-12.084-29.163c0-7.669,2.092-14.756,5.693-20.914
	c3.485-5.81,8.25-10.573,13.943-14.06l1.045,3.835c-4.764,3.137-8.714,7.319-11.619,12.199c-3.369,5.461-5.229,11.968-5.229,18.939
	c0,10.341,4.184,19.636,10.922,26.375c6.739,6.739,16.034,10.922,26.376,10.922c10.341,0,19.636-4.183,26.375-10.922
	c6.738-6.739,10.922-16.034,10.922-26.375c0-10.225-4.184-19.637-10.922-26.375c-6.391-6.274-14.989-10.341-24.633-10.806
	L954.281,785.006z"/>
<path d="M596.417,201.733c-6.158,3.602-11.503,8.714-15.221,14.872c-4.299,6.739-6.739,14.756-6.739,23.47
	c0,12.2,4.997,23.238,13.013,31.255c8.018,8.017,19.056,13.013,31.372,13.013c12.2,0,23.238-4.996,31.255-13.013
	c8.133-8.017,13.014-19.055,13.014-31.255c0-12.316-4.88-23.354-13.014-31.371c-8.017-8.017-19.055-13.013-31.255-13.013h-0.232
	l-2.091-7.668h0.232c0.813,0,1.51,0,2.091,0c14.292,0,27.305,5.81,36.716,15.221c9.412,9.412,15.221,22.425,15.221,36.832
	c0,14.292-5.81,27.305-15.221,36.716c-9.411,9.411-22.424,15.221-36.716,15.221c-14.408,0-27.421-5.81-36.832-15.221
	c-9.412-9.412-15.221-22.425-15.221-36.716c0-10.108,2.905-19.52,7.901-27.537c4.764-7.785,11.503-14.059,19.636-18.358
	L596.417,201.733z M615.123,133.413c-1.394,1.51-3.485,2.44-5.693,2.44c-1.51,0-3.021-0.465-4.299-1.278l-9.644,5.577l10.806,39.505
	c0,0.116,0.116,0.349,0.116,0.465l13.013,47.754c3.137,0.116,5.926,1.51,8.017,3.602c2.208,2.208,3.486,5.229,3.486,8.598
	c0,3.253-1.278,6.391-3.486,8.598c-2.208,2.091-5.229,3.486-8.598,3.486s-6.391-1.395-8.598-3.486
	c-2.208-2.208-3.602-5.345-3.602-8.598c0-3.369,1.394-6.39,3.602-8.598c0.581-0.581,1.162-1.162,1.859-1.627l-11.735-42.758
	l-69.133,47.173c0.581,1.743,0.93,3.718,0.93,5.809c0,3.021-0.813,5.926-2.208,8.366l8.83,6.855l5.693-1.511
	c1.046-0.349,2.092,0.349,2.324,1.278c0.232,1.045-0.349,2.091-1.395,2.44l-13.246,3.486c-1.046,0.349-2.091-0.349-2.324-1.278
	c-0.349-1.045,0.349-2.091,1.394-2.44l2.905-0.697l-6.506-5.112c-0.116,0.116-0.232,0.232-0.232,0.232
	c-3.021,3.021-7.204,4.88-11.735,4.88c-4.531,0-8.714-1.859-11.735-4.88c-2.091-2.091-3.602-4.764-4.299-7.668h-41.712
	c-0.581,1.743-1.626,3.253-2.904,4.647c-2.208,2.091-5.229,3.486-8.598,3.486c-3.37,0-6.391-1.395-8.598-3.486
	c-2.208-2.208-3.486-5.345-3.486-8.598c0-3.369,1.278-6.39,3.486-8.598c2.208-2.208,5.229-3.602,8.598-3.602
	c2.091,0,4.066,0.465,5.81,1.394l44.384-44.384l-5.229-18.939l-8.25,0.697c-0.465,0-1.045,0.116-1.51,0.116
	c-4.416,0-8.482-1.743-11.503-4.415c-3.021-2.789-4.996-6.506-5.345-10.573c-0.116-0.349-0.116-0.813-0.116-1.162
	c0-1.51,0.697-2.904,1.859-3.834c0.93-0.813,2.092-1.278,3.486-1.278h35.787c3.95,0,7.552,0.697,10.341,2.324
	c2.905,1.859,4.647,4.531,4.647,8.481c0,1.627-0.349,3.253-1.278,4.764c-1.162,1.626-2.905,2.672-5.577,2.905l-14.756,1.278
	l5.345,19.404c0.116,0.232,0.116,0.465,0.116,0.697l8.598,31.022l80.636-53.099l-6.507-23.819c-0.581-1.743,0.116-3.602,1.743-4.532
	l12.2-6.971c0-0.116,0-0.116,0-0.232c0-2.208,0.93-4.299,2.44-5.693c1.395-1.51,3.486-2.44,5.693-2.44
	c2.208,0,4.299,0.93,5.693,2.44c1.511,1.395,2.44,3.486,2.44,5.693S616.634,132.019,615.123,133.413L615.123,133.413z
	 M498.933,193.367l-41.479,41.479c0.232,0.465,0.349,0.93,0.581,1.395h41.48c0.697-3.021,2.324-5.81,4.415-7.901
	c1.162-1.162,2.44-2.091,3.834-2.789L498.933,193.367z M446.416,281.207c-11.387,0-21.611-4.647-29.048-12.083
	c-7.436-7.437-12.083-17.777-12.083-29.048c0-11.386,4.647-21.728,12.083-29.164c7.437-7.436,17.661-11.967,29.048-11.967
	c7.32,0,14.175,1.859,20.101,5.112l-2.905,2.905c-5.112-2.672-10.922-4.183-17.196-4.183c-10.225,0-19.636,4.183-26.375,10.922
	c-6.739,6.739-10.922,16.034-10.922,26.375c0,10.225,4.183,19.52,10.922,26.259c6.739,6.855,16.15,10.922,26.375,10.922
	c10.341,0,19.636-4.067,26.375-10.922c4.067-4.067,7.204-9.063,9.063-14.64h4.066c-1.975,6.623-5.577,12.665-10.457,17.429
	C468.027,276.559,457.802,281.207,446.416,281.207L446.416,281.207z M481.97,228.573c-0.581-1.743-1.278-3.486-2.092-5.113
	l2.789-2.904c1.395,2.556,2.44,5.229,3.253,8.017H481.97z M446.416,292.012c-14.292,0-27.305-5.81-36.716-15.221
	c-9.411-9.412-15.337-22.425-15.337-36.716c0-14.407,5.926-27.42,15.337-36.832c9.412-9.411,22.425-15.221,36.716-15.221
	c10.341,0,19.984,3.021,28.001,8.133l-5.577,5.577c-6.623-3.834-14.175-6.042-22.424-6.042c-12.2,0-23.354,4.996-31.372,13.013
	s-12.897,19.055-12.897,31.371c0,12.2,4.88,23.238,12.897,31.255s19.171,13.013,31.372,13.013c12.316,0,23.354-4.996,31.371-13.013
	c5.345-5.345,9.412-12.084,11.387-19.636h8.017c-2.208,9.644-7.204,18.358-13.943,25.097
	C473.836,286.203,460.823,292.012,446.416,292.012L446.416,292.012z M489.29,228.573c-0.93-3.602-2.44-7.088-4.299-10.341
	l5.693-5.693c3.021,4.88,5.229,10.341,6.507,16.034H489.29z M619.539,198.944c11.038,0.116,21.03,4.764,28.35,11.967
	c7.437,7.436,12.084,17.777,12.084,29.164c0,11.271-4.647,21.611-12.084,29.048c-7.436,7.436-17.777,12.083-29.047,12.083
	c-11.387,0-21.728-4.647-29.164-12.083c-7.437-7.437-11.968-17.777-11.968-29.048c0-7.668,2.092-14.872,5.693-21.03
	c3.486-5.693,8.25-10.573,13.827-14.059l1.046,3.834c-4.648,3.137-8.598,7.32-11.503,12.2c-3.37,5.577-5.229,12.084-5.229,19.055
	c0,10.225,4.183,19.52,10.922,26.259c6.739,6.855,16.034,10.922,26.375,10.922c10.225,0,19.52-4.067,26.375-10.922
	c6.739-6.739,10.922-16.034,10.922-26.259c0-10.341-4.183-19.636-10.922-26.375c-6.39-6.391-15.104-10.457-24.632-10.922
	L619.539,198.944z M516.362,223.46c4.066,0.232,7.785,1.859,10.573,4.416l71.341-48.684l-2.324-8.133L516.362,223.46z"/>
<path d="M931.16,201.733c-6.158,3.602-11.387,8.714-15.221,14.872c-4.3,6.739-6.739,14.756-6.739,23.47
	c0,12.2,4.996,23.238,13.013,31.255c8.018,8.017,19.172,13.013,31.372,13.013c12.199,0,23.354-4.996,31.371-13.013
	c8.017-8.017,13.013-19.055,13.013-31.255c0-12.316-4.996-23.354-13.013-31.371c-8.018-8.017-19.172-13.013-31.371-13.013h-0.232
	l-1.976-7.668h0.116c0.93,0,1.627,0,2.092,0c14.407,0,27.421,5.81,36.832,15.221c9.411,9.412,15.221,22.425,15.221,36.832
	c0,14.292-5.81,27.305-15.221,36.716c-9.411,9.411-22.425,15.221-36.832,15.221c-14.408,0-27.421-5.81-36.833-15.221
	c-9.411-9.412-15.221-22.425-15.221-36.716c0-10.108,2.905-19.52,7.901-27.537c4.764-7.785,11.619-14.059,19.636-18.358
	L931.16,201.733z M764.312,175.59l16.731,52.286l3.485-0.232l29.396-50.542C799.865,175.938,780.578,175.706,764.312,175.59
	L764.312,175.59z M773.839,230.432l-17.545-54.842c-1.743,0-3.253,0-4.764,0h-2.673c-2.091,0-3.834-1.743-3.834-3.834
	c0-2.092,1.743-3.834,3.834-3.834h2.673c18.938,0,48.567,0,66.577,1.859l6.274-10.689l-2.092-7.552l-9.411,0.813
	c-0.581,0-1.046,0.116-1.511,0.116c-4.415,0-8.482-1.743-11.503-4.416c-3.021-2.789-4.996-6.506-5.345-10.573
	c-0.116-0.349-0.116-0.813-0.116-1.162c0-1.511,0.697-2.905,1.743-3.834c0.929-0.813,2.207-1.278,3.485-1.278h35.786
	c3.951,0,7.669,0.697,10.458,2.324c2.788,1.859,4.531,4.531,4.531,8.482c0,1.626-0.232,3.253-1.278,4.764
	c-1.046,1.626-2.789,2.672-5.577,2.905l-13.479,1.162l2.092,7.668c0,0.116,0.116,0.232,0.116,0.232l11.503,42.41
	c13.478,1.626,30.209-2.44,45.431-8.947c18.474-8.017,34.508-19.288,39.736-27.77l-6.855-24.98
	c-0.581-1.859,0.232-3.834,1.976-4.648c10.689-5.112,15.918-9.179,17.429-12.548c0.465-1.046,0.349-1.975-0.232-2.789
	c-1.046-1.395-3.138-2.672-5.81-3.718c-7.669-3.137-19.404-4.299-28.815-3.253c-0.465,1.162-1.161,2.208-1.975,3.137
	c-1.511,1.511-3.486,2.324-5.693,2.324c-2.324,0-4.3-0.813-5.81-2.324c-1.395-1.51-2.324-3.485-2.324-5.693
	c0-2.208,0.93-4.299,2.324-5.693c1.51-1.511,3.485-2.44,5.81-2.44c2.207,0,4.183,0.93,5.693,2.44
	c0.232,0.116,0.349,0.348,0.58,0.697c10.806-1.278,24.284,0.116,33.114,3.718c3.951,1.51,7.088,3.602,8.947,6.158
	c2.439,3.137,3.021,6.739,1.162,10.689c-2.092,4.415-7.669,9.411-18.126,14.756l6.274,23.354c0.116,0.116,0.116,0.349,0.232,0.581
	l4.183,15.454c0.116,0.116,0.116,0.349,0.116,0.465l13.129,47.754c3.021,0.116,5.81,1.51,7.901,3.602
	c2.208,2.208,3.602,5.229,3.602,8.598c0,3.253-1.394,6.391-3.602,8.598c-2.208,2.091-5.229,3.486-8.598,3.486
	c-3.37,0-6.391-1.395-8.599-3.486c-2.207-2.208-3.602-5.345-3.602-8.598c0-3.369,1.395-6.39,3.602-8.598
	c0.581-0.581,1.162-1.162,1.859-1.627l-11.735-42.758l-69.133,47.173c0.697,1.743,1.046,3.718,1.046,5.809
	c0,3.021-0.93,5.926-2.324,8.366l8.83,6.855l5.693-1.511c1.046-0.349,2.092,0.349,2.324,1.278c0.349,1.045-0.349,2.091-1.278,2.44
	l-13.361,3.486c-0.93,0.349-2.092-0.349-2.324-1.278c-0.232-1.045,0.349-2.091,1.395-2.44l2.904-0.697l-6.507-5.112
	c-0.115,0.116-0.115,0.232-0.232,0.232c-3.021,3.021-7.087,4.88-11.734,4.88l0,0l0,0l0,0l0,0l0,0l0,0l0,0
	c-0.697,0-1.395,0-2.092-0.116l-67.506-4.299c-3.138-0.116-6.042-1.395-8.25-3.486c-2.092-2.208-3.485-5.345-3.485-8.598
	c0-3.369,1.394-6.39,3.485-8.598C773.025,231.013,773.374,230.664,773.839,230.432L773.839,230.432z M827.286,169.432l-33.579,57.63
	l48.335-3.021l-4.88-18.009c-0.116-0.349-0.232-0.697-0.232-0.93L827.286,169.432z M781.158,281.207
	c-11.27,0-21.611-4.647-29.047-12.083c-7.437-7.437-12.084-17.777-12.084-29.048c0-11.386,4.647-21.728,12.084-29.164
	c1.858-1.743,3.718-3.37,5.81-4.764l1.277,3.834c-1.51,1.045-3.021,2.324-4.299,3.718c-6.738,6.739-10.922,16.034-10.922,26.375
	c0,10.225,4.184,19.52,10.922,26.259c6.739,6.855,16.034,10.922,26.259,10.922c10.342,0,19.637-4.067,26.376-10.922
	c1.51-1.395,2.788-2.905,3.95-4.532l4.415,0.349c-1.627,2.44-3.485,4.88-5.577,6.972
	C802.886,276.559,792.545,281.207,781.158,281.207L781.158,281.207z M811.484,218.231c-0.697-0.929-1.395-1.859-2.092-2.672
	l1.976-3.485c1.743,1.859,3.253,3.718,4.531,5.926L811.484,218.231z M789.524,203.708c-2.673-0.697-5.461-0.93-8.366-0.93h-0.115
	l-1.162-3.834c0.465,0,0.93,0,1.277,0c3.603,0,7.088,0.464,10.457,1.278L789.524,203.708z M781.158,292.012
	c-14.291,0-27.304-5.81-36.716-15.221c-9.411-9.412-15.221-22.425-15.221-36.716c0-14.407,5.81-27.42,15.221-36.832
	c3.021-3.021,6.391-5.693,10.108-7.901l2.44,7.552c-2.556,1.743-4.996,3.602-7.088,5.81c-8.017,8.017-13.013,19.055-13.013,31.371
	c0,12.2,4.996,23.238,13.013,31.255c8.018,8.017,19.056,13.013,31.255,13.013c12.316,0,23.354-4.996,31.372-13.013
	c2.672-2.672,5.112-5.693,6.971-8.947l8.482,0.465c-2.557,5.229-5.926,9.876-9.992,13.943
	C808.579,286.203,795.566,292.012,781.158,292.012L781.158,292.012z M819.501,217.767c-1.742-3.137-3.95-6.042-6.506-8.598
	l4.066-6.855c0.349,0.349,0.581,0.581,0.93,0.93c4.066,4.066,7.436,8.714,9.992,13.943L819.501,217.767z M793.242,197.317
	c-3.834-1.045-7.9-1.626-12.084-1.626c-0.696,0-1.51,0-2.323,0.116l-2.44-7.552c1.627-0.232,3.254-0.232,4.764-0.232
	c5.693,0,11.038,0.813,16.035,2.44L793.242,197.317z M954.281,198.944c11.038,0.116,21.147,4.764,28.351,11.967
	c7.437,7.436,12.084,17.777,12.084,29.164c0,11.271-4.647,21.611-12.084,29.048c-7.436,7.436-17.661,12.083-29.047,12.083
	c-11.387,0-21.611-4.647-29.048-12.083c-7.437-7.437-12.084-17.777-12.084-29.048c0-7.668,2.092-14.872,5.693-21.03
	c3.485-5.693,8.25-10.573,13.943-14.059l1.045,3.834c-4.764,3.137-8.714,7.32-11.619,12.2c-3.369,5.577-5.229,12.084-5.229,19.055
	c0,10.225,4.184,19.52,10.922,26.259c6.739,6.855,16.034,10.922,26.376,10.922c10.341,0,19.636-4.067,26.375-10.922
	c6.738-6.739,10.922-16.034,10.922-26.259c0-10.341-4.184-19.636-10.922-26.375c-6.391-6.391-14.989-10.457-24.633-10.922
	L954.281,198.944z M849.943,223.46c0.116,0,0.349,0,0.465,0c4.415,0,8.365,1.743,11.271,4.416l71.341-48.684l-1.627-5.577
	c-8.018,8.714-22.773,18.59-39.156,25.562c-15.221,6.507-31.952,10.806-46.244,9.876L849.943,223.46z"/>
<path d="M596.417,483.145c-6.158,3.602-11.503,8.715-15.221,14.756c-4.299,6.855-6.739,14.873-6.739,23.471
	c0,12.316,4.997,23.354,13.013,31.371c8.018,8.018,19.056,13.014,31.372,13.014c12.2,0,23.238-4.996,31.255-13.014
	c8.133-8.017,13.014-19.055,13.014-31.371c0-12.199-4.88-23.354-13.014-31.371c-8.017-8.017-19.055-12.897-31.255-12.897h-0.232
	l-2.091-7.668h0.232c0.813,0,1.51-0.116,2.091-0.116c14.292,0,27.305,5.81,36.716,15.337c9.412,9.411,15.221,22.425,15.221,36.716
	c0,14.408-5.81,27.421-15.221,36.832c-9.411,9.412-22.424,15.222-36.716,15.222c-14.408,0-27.421-5.81-36.832-15.222
	c-9.412-9.411-15.221-22.424-15.221-36.832c0-10.108,2.905-19.52,7.901-27.537c4.764-7.668,11.503-14.059,19.636-18.358
	L596.417,483.145z M615.123,414.825c-1.394,1.394-3.485,2.324-5.693,2.324c-1.51,0-3.021-0.465-4.299-1.162l-9.644,5.461
	l4.183,15.57c0.232,0.348,0.349,0.813,0.349,1.162l6.274,22.773c0,0.232,0.116,0.349,0.116,0.581l13.013,47.754
	c3.137,0.116,5.926,1.395,8.017,3.486c2.208,2.207,3.486,5.229,3.486,8.598c0,3.37-1.278,6.391-3.486,8.599
	c-2.208,2.207-5.229,3.602-8.598,3.602s-6.391-1.395-8.598-3.602c-2.208-2.208-3.602-5.229-3.602-8.599
	c0-3.369,1.394-6.391,3.602-8.598c0.581-0.581,1.162-1.046,1.859-1.511l-11.735-42.874l-69.133,47.289
	c0.581,1.743,0.93,3.719,0.93,5.693c0,3.138-0.813,5.926-2.208,8.482l8.83,6.738l5.693-1.51c1.046-0.232,2.092,0.349,2.324,1.394
	c0.232,1.046-0.349,2.092-1.395,2.324l-13.246,3.602c-1.046,0.232-2.091-0.349-2.324-1.394c-0.349-1.046,0.349-2.092,1.394-2.324
	l2.905-0.813l-6.506-4.996c-0.116,0.116-0.232,0.116-0.232,0.232c-3.021,3.021-7.204,4.88-11.735,4.88
	c-4.531,0-8.714-1.859-11.735-4.88c-2.091-2.092-3.602-4.764-4.299-7.784h-41.712c-0.581,1.742-1.626,3.369-2.904,4.647
	c-2.208,2.207-5.229,3.602-8.598,3.602c-3.37,0-6.391-1.395-8.598-3.602c-2.208-2.208-3.486-5.229-3.486-8.599
	c0-3.369,1.278-6.391,3.486-8.598c2.208-2.208,5.229-3.486,8.598-3.486c3.021,0,5.81,1.046,7.901,2.905l47.289-27.421l-4.764-17.545
	c0-0.116,0-0.232,0-0.349l-5.461-19.636l-8.25,0.813c-0.465,0-1.045,0-1.51,0c-4.416,0-8.482-1.743-11.503-4.415
	s-4.996-6.506-5.345-10.457c-0.116-0.465-0.116-0.813-0.116-1.278c0-1.511,0.697-2.789,1.859-3.718
	c0.93-0.813,2.092-1.278,3.486-1.278h35.787c3.95,0,7.552,0.581,10.341,2.324c2.905,1.743,4.647,4.415,4.647,8.365
	c0,1.743-0.349,3.37-1.278,4.88c-1.162,1.51-2.905,2.672-5.577,2.905l-14.756,1.278l4.416,16.15l53.099,10.922l35.206-36.135
	l-4.532-16.847c-0.581-1.627,0.116-3.602,1.743-4.532l12.2-6.971v-0.116c0-2.324,0.93-4.299,2.44-5.81
	c1.395-1.394,3.486-2.324,5.693-2.324c2.208,0,4.299,0.93,5.693,2.324c1.511,1.511,2.44,3.486,2.44,5.81
	C617.563,411.339,616.634,413.314,615.123,414.825L615.123,414.825z M509.739,485.353c0.116,0.116,0.116,0.232,0.116,0.464
	l5.229,19.055c0.232,0,0.349,0,0.581,0c3.137,0,6.042,0.813,8.482,2.324l26.143-26.84l-44.384-9.295L509.739,485.353z
	 M503.813,492.44l-43.688,25.213h39.388c0.697-3.021,2.324-5.81,4.415-8.018c1.162-1.045,2.44-1.975,3.834-2.788L503.813,492.44z
	 M446.416,562.503c-11.387,0-21.611-4.532-29.048-12.084c-7.436-7.437-12.083-17.661-12.083-29.048s4.647-21.611,12.083-29.047
	c7.437-7.437,17.661-12.084,29.048-12.084c10.922,0,20.914,4.299,28.234,11.271l-3.485,1.975
	c-6.623-5.809-15.221-9.411-24.749-9.411c-10.225,0-19.636,4.183-26.375,10.922c-6.739,6.739-10.922,16.15-10.922,26.375
	c0,10.341,4.183,19.637,10.922,26.375c6.739,6.739,16.15,10.922,26.375,10.922c10.341,0,19.636-4.183,26.375-10.922
	c4.067-4.066,7.204-9.063,9.063-14.756h4.066c-1.975,6.739-5.577,12.665-10.457,17.429
	C468.027,557.971,457.802,562.503,446.416,562.503L446.416,562.503z M446.416,573.425c-14.292,0-27.305-5.81-36.716-15.222
	c-9.411-9.411-15.337-22.424-15.337-36.832c0-14.291,5.926-27.305,15.337-36.716c9.412-9.527,22.425-15.337,36.716-15.337
	c14.408,0,27.421,5.81,36.832,15.337c0.349,0.349,0.813,0.813,1.162,1.162l-6.855,3.951c-8.017-7.901-18.939-12.665-31.139-12.665
	c-12.2,0-23.354,4.88-31.372,12.897c-8.017,8.018-12.897,19.172-12.897,31.371c0,12.316,4.88,23.354,12.897,31.371
	c8.017,8.018,19.171,13.014,31.372,13.014c12.316,0,23.354-4.996,31.371-13.014c5.345-5.345,9.412-12.083,11.387-19.752h8.017
	c-2.208,9.76-7.204,18.358-13.943,25.213C473.836,567.615,460.823,573.425,446.416,573.425L446.416,573.425z M619.539,480.24
	c11.038,0.232,21.03,4.764,28.35,12.084c7.437,7.436,12.084,17.66,12.084,29.047s-4.647,21.611-12.084,29.048
	c-7.436,7.552-17.777,12.084-29.047,12.084c-11.387,0-21.728-4.532-29.164-12.084c-7.437-7.437-11.968-17.661-11.968-29.048
	c0-7.668,2.092-14.872,5.693-20.914c3.486-5.81,8.25-10.573,13.827-14.059l1.046,3.834c-4.648,3.137-8.598,7.204-11.503,12.084
	c-3.37,5.577-5.229,12.084-5.229,19.055c0,10.341,4.183,19.637,10.922,26.375c6.739,6.739,16.034,10.922,26.375,10.922
	c10.225,0,19.52-4.183,26.375-10.922c6.739-6.738,10.922-16.034,10.922-26.375c0-10.225-4.183-19.636-10.922-26.375
	c-6.39-6.274-15.104-10.341-24.632-10.806L619.539,480.24z M594.209,446.08l-49.729,51.124l53.796-36.6L594.209,446.08z"/>
<path d="M931.16,483.145c-6.158,3.602-11.387,8.715-15.221,14.756c-4.3,6.855-6.739,14.873-6.739,23.471
	c0,12.316,4.996,23.354,13.013,31.371c8.018,8.018,19.172,13.014,31.372,13.014c12.199,0,23.354-4.996,31.371-13.014
	c8.017-8.017,13.013-19.055,13.013-31.371c0-12.199-4.996-23.354-13.013-31.371c-8.018-8.017-19.172-12.897-31.371-12.897h-0.232
	l-1.976-7.668h0.116c0.93,0,1.627-0.116,2.092-0.116c14.407,0,27.421,5.81,36.832,15.337c9.411,9.411,15.221,22.425,15.221,36.716
	c0,14.408-5.81,27.421-15.221,36.832c-9.411,9.412-22.425,15.222-36.832,15.222c-14.408,0-27.421-5.81-36.833-15.222
	c-9.411-9.411-15.221-22.424-15.221-36.832c0-10.108,2.905-19.52,7.901-27.537c4.764-7.668,11.619-14.059,19.636-18.358
	L931.16,483.145z M787.433,510.914l44.733-40.899l-8.946-32.533l-8.366,0.697c-0.465,0-1.045,0.116-1.51,0.116
	c-4.416,0-8.482-1.743-11.503-4.531c-3.021-2.672-4.996-6.391-5.345-10.457c-0.116-0.349-0.116-0.813-0.116-1.162
	c0-1.51,0.696-2.905,1.858-3.834c0.93-0.813,2.092-1.278,3.486-1.278h35.786c3.95,0,7.553,0.581,10.341,2.324
	c2.905,1.743,4.647,4.531,4.647,8.482c0,1.626-0.232,3.253-1.278,4.764c-1.161,1.627-2.904,2.672-5.576,2.905l-14.641,1.278
	l3.486,12.897l95.508,0.116l-7.204-26.375h-9.295c-2.092,0-3.834-1.743-3.834-3.834s1.742-3.834,3.834-3.834h31.604
	c4.764,0,9.063,1.859,12.2,4.997c3.021,3.137,4.996,7.436,4.996,12.2s-1.976,9.063-4.996,12.084
	c-3.138,3.137-7.437,5.112-12.2,5.112c-2.091,0-3.834-1.743-3.834-3.834c0-2.208,1.743-3.95,3.834-3.95
	c2.673,0,4.996-1.046,6.739-2.673c1.743-1.743,2.788-4.183,2.788-6.739c0-2.672-1.045-4.996-2.788-6.739
	c-1.743-1.743-4.066-2.789-6.739-2.789h-14.291l7.9,29.048c0,0.116,0,0.116,0,0.232l2.324,8.133
	c0.116,0.232,0.116,0.465,0.116,0.697l13.129,47.754c3.021,0.116,5.81,1.395,7.901,3.486c2.208,2.207,3.602,5.229,3.602,8.598
	c0,3.37-1.394,6.391-3.602,8.599c-2.208,2.207-5.229,3.602-8.598,3.602c-3.37,0-6.391-1.395-8.599-3.602
	c-2.207-2.208-3.602-5.229-3.602-8.599c0-3.369,1.395-6.391,3.602-8.598c0.581-0.581,1.162-1.046,1.859-1.511l-12.316-45.082
	c-13.014,0.813-25.91,6.623-37.646,14.64c-12.897,8.831-24.399,20.217-33.347,30.442c2.208,2.788,3.486,6.391,3.486,10.108
	c0,3.138-0.93,5.926-2.324,8.482l8.83,6.738l5.693-1.51c1.046-0.232,2.092,0.349,2.324,1.394c0.349,1.046-0.349,2.092-1.278,2.324
	l-13.361,3.602c-0.93,0.232-2.092-0.349-2.324-1.394c-0.232-1.046,0.349-2.092,1.395-2.324l2.904-0.813l-6.507-4.996
	c-0.115,0.116-0.115,0.116-0.232,0.232c-3.021,3.021-7.087,4.88-11.734,4.88c-4.531,0-8.715-1.859-11.735-4.88
	c-2.092-2.092-3.603-4.764-4.299-7.784h-41.713c-0.581,1.742-1.51,3.369-2.904,4.647c-2.092,2.207-5.229,3.602-8.599,3.602
	c-3.253,0-6.39-1.395-8.598-3.602c-2.092-2.208-3.485-5.229-3.485-8.599c0-3.369,1.394-6.391,3.485-8.598
	c2.208-2.208,5.345-3.486,8.598-3.486C783.482,509.287,785.574,509.868,787.433,510.914L787.433,510.914z M834.49,478.265
	l-42.062,38.459c0.116,0.349,0.232,0.581,0.349,0.93h41.48c0.813-3.021,2.323-5.81,4.415-8.018c1.162-1.045,2.439-1.975,3.718-2.788
	L834.49,478.265z M781.158,562.503c-11.27,0-21.611-4.532-29.047-12.084c-7.437-7.437-12.084-17.661-12.084-29.048
	s4.647-21.611,12.084-29.047c7.436-7.437,17.777-12.084,29.047-12.084c8.018,0,15.454,2.324,21.728,6.158l-3.021,2.672
	c-5.461-3.137-11.852-4.996-18.707-4.996c-10.225,0-19.52,4.183-26.259,10.922c-6.738,6.739-10.922,16.15-10.922,26.375
	c0,10.341,4.184,19.637,10.922,26.375c6.739,6.739,16.034,10.922,26.259,10.922c10.342,0,19.637-4.183,26.376-10.922
	c4.066-4.066,7.203-9.063,9.063-14.756h4.066c-1.975,6.739-5.577,12.665-10.341,17.429
	C802.886,557.971,792.545,562.503,781.158,562.503L781.158,562.503z M816.713,509.984c-0.465-1.277-0.93-2.556-1.395-3.718
	l2.905-2.788c1.046,2.091,1.858,4.299,2.556,6.506H816.713z M781.158,573.425c-14.291,0-27.304-5.81-36.716-15.222
	c-9.411-9.411-15.221-22.424-15.221-36.832c0-14.291,5.81-27.305,15.221-36.716c9.412-9.527,22.425-15.337,36.716-15.337
	c11.154,0,21.496,3.602,29.978,9.527l-5.81,5.345c-6.972-4.531-15.221-7.087-24.168-7.087c-12.199,0-23.237,4.88-31.255,12.897
	c-8.017,8.018-13.013,19.172-13.013,31.371c0,12.316,4.996,23.354,13.013,31.371c8.018,8.018,19.056,13.014,31.255,13.014
	c12.316,0,23.354-4.996,31.372-13.014c5.461-5.345,9.411-12.083,11.502-19.752h7.901c-2.207,9.76-7.088,18.358-13.942,25.213
	C808.579,567.615,795.566,573.425,781.158,573.425L781.158,573.425z M824.032,509.984c-0.813-3.021-1.858-5.926-3.253-8.714
	l5.81-5.345c2.44,4.299,4.299,9.063,5.345,14.059H824.032z M954.281,480.24c11.038,0.232,21.147,4.764,28.351,12.084
	c7.437,7.436,12.084,17.66,12.084,29.047s-4.647,21.611-12.084,29.048c-7.436,7.552-17.661,12.084-29.047,12.084
	c-11.387,0-21.611-4.532-29.048-12.084c-7.437-7.437-12.084-17.661-12.084-29.048c0-7.668,2.092-14.872,5.693-20.914
	c3.485-5.81,8.25-10.573,13.943-14.059l1.045,3.834c-4.764,3.137-8.714,7.204-11.619,12.084c-3.369,5.577-5.229,12.084-5.229,19.055
	c0,10.341,4.184,19.637,10.922,26.375c6.739,6.739,16.034,10.922,26.376,10.922c10.341,0,19.636-4.183,26.375-10.922
	c6.738-6.738,10.922-16.034,10.922-26.375c0-10.225-4.184-19.636-10.922-26.375c-6.391-6.274-14.989-10.341-24.633-10.806
	L954.281,480.24z M849.827,504.872c0.232,0,0.349,0,0.581,0c2.556,0,4.996,0.581,7.203,1.627
	c9.296-10.806,21.379-22.773,34.857-31.952c12.433-8.482,26.026-14.756,39.97-15.918l-0.349-1.162l-95.393-0.116L849.827,504.872z"
	/>
<path d="M1265.903,483.958c-6.158,3.718-11.387,8.714-15.222,14.872c-4.182,6.739-6.622,14.873-6.622,23.471
	c0,12.2,4.88,23.354,12.897,31.371c8.017,8.018,19.171,12.897,31.371,12.897c12.316,0,23.354-4.88,31.371-12.897
	c8.017-8.017,13.013-19.171,13.013-31.371c0-12.316-4.996-23.354-13.013-31.371c-8.018-8.017-19.055-13.014-31.371-13.014h-0.116
	l-2.092-7.668h0.116c0.93,0,1.627,0,2.092,0c14.407,0,27.42,5.81,36.832,15.221c9.411,9.411,15.221,22.425,15.221,36.832
	c0,14.291-5.81,27.305-15.221,36.716c-9.412,9.411-22.425,15.337-36.832,15.337c-14.292,0-27.305-5.926-36.717-15.337
	c-9.411-9.411-15.337-22.425-15.337-36.716c0-10.108,2.905-19.52,7.901-27.537c4.88-7.668,11.619-14.059,19.636-18.358
	L1265.903,483.958z M1284.726,415.638c-1.511,1.511-3.485,2.44-5.692,2.44c-1.627,0-3.138-0.465-4.3-1.278l-9.76,5.577l6.507,23.586
	c0,0.116,0,0.232,0.116,0.349l4.183,15.453c0.116,0.232,0.116,0.465,0.232,0.697l13.014,47.638c3.137,0.232,5.926,1.511,7.9,3.603
	c2.208,2.207,3.602,5.229,3.602,8.598s-1.394,6.391-3.602,8.598c-2.207,2.208-5.229,3.486-8.598,3.486
	c-3.37,0-6.391-1.278-8.599-3.486c-2.207-2.207-3.485-5.229-3.485-8.598s1.278-6.391,3.485-8.598
	c0.581-0.581,1.162-1.162,1.859-1.511l-12.316-45.082c-16.15,1.395-25.678,14.059-35.554,27.072
	c-8.831,11.852-17.894,23.819-31.952,29.164c-0.232,2.672-1.046,5.112-2.324,7.319l8.831,6.855l5.693-1.51
	c1.045-0.232,2.091,0.348,2.439,1.394c0.232,0.93-0.349,1.976-1.395,2.324l-13.245,3.485c-1.046,0.349-2.092-0.232-2.44-1.278
	c-0.232-1.045,0.349-2.091,1.395-2.439l2.904-0.697l-6.506-5.112c0,0.116-0.116,0.232-0.232,0.232
	c-3.021,3.021-7.088,4.88-11.735,4.88c-4.531,0-8.599-1.859-11.619-4.88c-2.092-2.092-3.718-4.764-4.415-7.669h-41.597
	c-0.696,1.743-1.626,3.37-2.904,4.647c-2.208,2.208-5.229,3.486-8.598,3.486c-3.37,0-6.391-1.278-8.599-3.486
	c-2.207-2.207-3.602-5.229-3.602-8.598s1.395-6.391,3.602-8.598c2.208-2.208,5.229-3.603,8.599-3.603h0.116
	c8.365-21.959,25.213-37.529,46.592-48.219c0.581-0.232,1.162-0.581,1.743-0.813l-3.486-12.897l-8.249,0.697
	c-0.581,0.116-1.046,0.116-1.511,0.116c-4.531,0-8.481-1.743-11.503-4.415c-3.021-2.789-5.112-6.507-5.461-10.457
	c0-0.465,0-0.93,0-1.278c0-1.51,0.697-2.905,1.743-3.834c0.93-0.813,2.207-1.278,3.485-1.278h35.787
	c3.95,0,7.668,0.697,10.341,2.324c2.904,1.859,4.647,4.531,4.647,8.482c0,1.626-0.232,3.253-1.278,4.764
	c-1.046,1.627-2.788,2.672-5.577,2.905l-14.64,1.278l2.788,10.457c26.84-11.038,59.373-15.221,91.209-14.756l-5.926-21.495
	c-0.465-1.743,0.232-3.602,1.743-4.531l12.316-6.971c0-0.116,0-0.116,0-0.232c0-2.208,0.93-4.183,2.323-5.693
	c1.511-1.511,3.486-2.324,5.811-2.324c2.207,0,4.182,0.813,5.692,2.324c1.395,1.51,2.324,3.485,2.324,5.693
	C1287.05,412.153,1286.12,414.244,1284.726,415.638L1284.726,415.638z M1116.019,563.432c-11.387,0-21.612-4.647-29.164-12.083
	c-7.437-7.437-11.968-17.777-11.968-29.048c0-11.387,4.531-21.611,11.968-29.164c7.552-7.436,17.777-11.967,29.164-11.967
	c2.672,0,5.345,0.232,7.9,0.697c-0.93,1.162-1.859,2.324-2.672,3.486c-1.743-0.232-3.486-0.349-5.229-0.349
	c-10.342,0-19.637,4.183-26.376,10.922c-6.738,6.739-10.922,16.034-10.922,26.375c0,10.225,4.184,19.636,10.922,26.375
	c6.739,6.739,16.034,10.922,26.376,10.922c10.225,0,19.636-4.183,26.375-10.922c4.066-4.066,7.203-9.179,9.063-14.756h3.95
	c-1.975,6.623-5.577,12.664-10.341,17.429C1137.63,558.784,1127.289,563.432,1116.019,563.432L1116.019,563.432z M1151.456,510.798
	c-1.859-5.693-4.996-10.689-9.063-14.872c0.813-0.93,1.742-1.859,2.556-2.789h0.116c4.88,4.881,8.481,10.922,10.457,17.661H1151.456
	z M1116.019,574.354c-14.408,0-27.421-5.926-36.833-15.337c-9.411-9.411-15.221-22.425-15.221-36.716
	c0-14.407,5.81-27.421,15.221-36.832c9.412-9.412,22.425-15.221,36.833-15.221c5.809,0,11.386,0.93,16.614,2.672
	c-2.207,1.976-4.299,4.067-6.273,6.274c-3.254-0.813-6.739-1.278-10.341-1.278c-12.316,0-23.354,4.997-31.372,13.014
	c-8.017,8.017-13.013,19.055-13.013,31.371c0,12.2,4.996,23.354,13.013,31.371c8.018,8.018,19.056,12.897,31.372,12.897
	c12.199,0,23.354-4.88,31.371-12.897c5.345-5.461,9.295-12.2,11.387-19.752h7.9c-2.207,9.644-7.087,18.358-13.942,25.097
	C1143.322,568.428,1130.31,574.354,1116.019,574.354L1116.019,574.354z M1158.893,510.798c-2.092-7.553-6.158-14.407-11.503-19.868
	l-0.116-0.116c1.859-1.743,3.834-3.37,5.81-4.997c6.739,6.855,11.503,15.454,13.71,24.981H1158.893z M1123.338,512.657
	c0.465,0.232,0.813,0.581,1.278,1.046c1.278,1.277,2.323,3.021,2.904,4.88h41.597c0.697-3.138,2.207-5.81,4.415-8.018
	c1.046-1.162,2.324-2.091,3.718-2.788l-10.689-39.156c-0.116,0-0.349,0.116-0.465,0.232
	C1146.46,478.497,1131.123,492.789,1123.338,512.657L1123.338,512.657z M1289.025,481.169c11.153,0.116,21.146,4.764,28.466,11.967
	c7.437,7.553,11.968,17.777,11.968,29.164c0,11.271-4.531,21.611-11.968,29.048c-7.552,7.436-17.776,12.083-29.163,12.083
	s-21.611-4.647-29.048-12.083c-7.437-7.437-12.084-17.777-12.084-29.048c0-7.669,2.092-14.872,5.81-21.03
	c3.369-5.693,8.134-10.573,13.827-14.059l1.046,3.834c-4.765,3.137-8.715,7.319-11.619,12.199
	c-3.254,5.577-5.229,12.084-5.229,19.056c0,10.225,4.183,19.636,10.922,26.375c6.738,6.739,16.15,10.922,26.375,10.922
	c10.341,0,19.636-4.183,26.375-10.922c6.738-6.739,10.922-16.15,10.922-26.375c0-10.341-4.184-19.636-10.922-26.375
	c-6.391-6.391-14.988-10.457-24.633-10.922L1289.025,481.169z M1184.687,505.686c0.116,0,0.349,0,0.465,0
	c4.647,0,8.714,1.859,11.735,4.88c1.394,1.395,2.556,3.138,3.369,4.88c11.619-4.996,19.52-15.569,27.421-25.91
	c10.573-14.059,21.03-27.885,39.62-29.977l-2.439-8.598c-31.952-0.697-64.718,3.253-91.209,14.408L1184.687,505.686z"/>
<path id="XMLID_27_" d="M1265.903,787.911c-6.158,3.602-11.387,8.714-15.222,14.756c-4.182,6.855-6.622,14.872-6.622,23.471
	c0,12.316,4.88,23.354,12.897,31.371c8.017,8.018,19.171,13.014,31.371,13.014c12.316,0,23.354-4.996,31.371-13.014
	c8.017-8.017,13.013-19.055,13.013-31.371c0-12.2-4.996-23.238-13.013-31.371c-8.018-8.018-19.055-12.897-31.371-12.897h-0.116
	l-2.092-7.669h0.116c0.93,0,1.627,0,2.092,0c14.407,0,27.42,5.81,36.832,15.222c9.411,9.411,15.221,22.424,15.221,36.716
	c0,14.407-5.81,27.421-15.221,36.832c-9.412,9.411-22.425,15.221-36.832,15.221c-14.292,0-27.305-5.81-36.717-15.221
	c-9.411-9.411-15.337-22.425-15.337-36.832c0-10.108,2.905-19.521,7.901-27.421c4.88-7.785,11.619-14.175,19.636-18.475
	L1265.903,787.911z"/>
<path id="XMLID_26_" d="M1116.367,830.088c-2.208,0-3.835-1.627-3.835-3.834c0-2.092,1.627-3.834,3.835-3.834h77.266
	c5.926-15.338,15.918-29.629,29.629-40.318c13.013-10.225,29.279-17.196,48.567-18.939c2.091-0.115,3.95,1.395,4.183,3.486
	c0.232,2.207-1.395,4.066-3.485,4.183c-17.661,1.627-32.649,8.018-44.501,17.313c-13.246,10.341-22.773,24.283-28.002,39.156
	c-0.465,1.626-1.859,2.788-3.718,2.788H1116.367z"/>
<path id="XMLID_25_" d="M1292.046,825.208c0.581,1.976-0.697,4.066-2.673,4.647c-2.091,0.581-4.183-0.581-4.764-2.672L1256.84,725.4
	c-0.58-2.091,0.697-4.183,2.673-4.764c2.092-0.465,4.183,0.697,4.764,2.789L1292.046,825.208z"/>
<path id="XMLID_24_" d="M1167.606,789.771c0.581,1.975-0.697,4.066-2.673,4.647c-2.091,0.581-4.183-0.697-4.764-2.789l-8.714-32.649
	c-0.465-2.091,0.697-4.183,2.788-4.764c1.976-0.465,4.067,0.697,4.648,2.789L1167.606,789.771z"/>
<path id="XMLID_23_" d="M1248.358,728.189c-2.208,0-3.834-1.743-3.834-3.834c0-2.092,1.626-3.835,3.834-3.835h31.487
	c2.208,0,3.835,1.743,3.835,3.835c0,2.091-1.627,3.834-3.835,3.834H1248.358z"/>
<path id="XMLID_22_" d="M1279.846,728.189c-2.091,0-3.834-1.743-3.834-3.834c0-2.092,1.743-3.835,3.834-3.835
	c4.764,0,9.063,1.976,12.2,4.996c3.138,3.138,4.996,7.437,4.996,12.2s-1.858,9.063-4.996,12.2c-3.138,3.021-7.437,4.996-12.2,4.996
	c-2.091,0-3.834-1.743-3.834-3.834c0-2.208,1.743-3.835,3.834-3.835c2.673,0,4.996-1.161,6.739-2.788
	c1.743-1.743,2.788-4.066,2.788-6.739c0-2.672-1.045-4.996-2.788-6.738C1284.842,729.235,1282.519,728.189,1279.846,728.189
	L1279.846,728.189z"/>
<path id="XMLID_21_" fill-rule="evenodd" clip-rule="evenodd" d="M1132.4,751.079h35.787c6.158,0,11.154,1.626,11.154,6.854
	c0,2.092-0.465,3.719-3.369,3.951l-30.675,2.672c-7.784,0.581-14.291-5.577-14.291-12.316l0,0
	C1131.007,751.544,1131.703,751.079,1132.4,751.079L1132.4,751.079z"/>
<path d="M1132.4,747.244h35.787c3.95,0,7.669,0.581,10.341,2.324c2.905,1.743,4.647,4.415,4.647,8.365
	c0,1.743-0.232,3.37-1.278,4.881c-1.045,1.51-2.788,2.672-5.577,2.904l-30.674,2.672c-0.581,0-1.046,0-1.511,0
	c-4.415,0-8.481-1.742-11.503-4.415c-3.021-2.672-5.112-6.506-5.461-10.457c0-0.465,0-0.813,0-1.278c0-1.51,0.697-2.788,1.743-3.718
	C1129.845,747.709,1131.123,747.244,1132.4,747.244L1132.4,747.244z M1168.188,754.913h-32.766c0.465,1.278,1.278,2.44,2.324,3.369
	c1.626,1.511,3.834,2.44,6.39,2.44c0.232,0,0.581,0,0.813,0l30.559-2.673v-0.116c0-0.929-0.349-1.51-0.93-1.858
	C1173.184,755.262,1170.859,754.913,1168.188,754.913L1168.188,754.913z M1175.623,758.398c0,0,0,0,0-0.116
	C1175.623,758.398,1175.508,758.515,1175.623,758.398L1175.623,758.398z"/>
<path id="XMLID_17_" d="M1217.801,788.376c1.858,0.813,2.672,3.137,1.858,5.112c-0.929,1.859-3.253,2.672-5.112,1.859
	c-0.58-0.232-0.93-0.465-1.045-0.465c-14.06-6.042-34.276-4.648-52.751,1.51c-18.357,6.158-34.624,17.08-40.782,30.442
	c-0.232,0.349-0.349,0.697-0.465,0.813c-0.813,1.975-3.021,2.904-4.996,2.091c-1.976-0.813-2.905-3.137-2.092-5.112
	c0.232-0.465,0.465-0.813,0.581-1.046c7.088-15.337,25.213-27.653,45.314-34.392c20.101-6.855,42.409-8.134,58.095-1.395
	C1216.987,788.027,1217.452,788.26,1217.801,788.376L1217.801,788.376z"/>
<path id="XMLID_16_" fill-rule="evenodd" clip-rule="evenodd" d="M1196.422,838.918c7.087,0,12.78-5.692,12.78-12.78
	c0-6.972-5.693-12.665-12.78-12.665c-6.972,0-12.665,5.693-12.665,12.665C1183.757,833.226,1189.45,838.918,1196.422,838.918
	L1196.422,838.918z"/>
<path d="M1196.422,835.084c2.439,0,4.647-1.046,6.274-2.672c1.626-1.627,2.556-3.835,2.556-6.274c0-2.44-0.93-4.647-2.556-6.274
	c-1.627-1.511-3.835-2.557-6.274-2.557c-2.44,0-4.647,1.046-6.274,2.557c-1.627,1.627-2.557,3.834-2.557,6.274
	c0,2.439,0.93,4.647,2.557,6.274C1191.774,834.038,1193.981,835.084,1196.422,835.084L1196.422,835.084z M1208.156,837.873
	c-3.021,3.021-7.087,4.88-11.734,4.88c-4.531,0-8.715-1.859-11.735-4.88c-2.905-3.021-4.764-7.088-4.764-11.735
	c0-4.531,1.858-8.715,4.764-11.619c3.021-3.021,7.204-4.88,11.735-4.88c4.647,0,8.714,1.859,11.734,4.88
	c3.021,2.904,4.881,7.088,4.881,11.619C1213.037,830.785,1211.178,834.852,1208.156,837.873L1208.156,837.873z"/>
<path id="XMLID_13_" d="M1289.025,785.006c11.153,0.232,21.146,4.765,28.466,12.084c7.437,7.437,11.968,17.777,11.968,29.048
	c0,11.387-4.531,21.728-11.968,29.163c-7.552,7.437-17.776,11.968-29.163,11.968s-21.611-4.531-29.048-11.968
	c-7.437-7.436-12.084-17.776-12.084-29.163c0-7.669,2.092-14.756,5.81-20.914c3.369-5.81,8.134-10.573,13.827-14.06l1.046,3.835
	c-4.765,3.137-8.715,7.319-11.619,12.199c-3.254,5.461-5.229,11.968-5.229,18.939c0,10.341,4.183,19.636,10.922,26.375
	c6.738,6.739,16.15,10.922,26.375,10.922c10.341,0,19.636-4.183,26.375-10.922c6.738-6.739,10.922-16.034,10.922-26.375
	c0-10.225-4.184-19.637-10.922-26.375c-6.391-6.274-14.988-10.341-24.633-10.806L1289.025,785.006z"/>
<path id="XMLID_12_" d="M1195.492,827.648c-0.813-0.581-0.93-1.859-0.349-2.673c0.697-0.813,1.859-0.93,2.788-0.349l22.309,17.429
	c0.93,0.581,1.046,1.858,0.349,2.672c-0.581,0.813-1.858,0.93-2.672,0.349L1195.492,827.648z"/>
<path id="XMLID_11_" d="M1212.92,847.168c-0.929,0.232-2.091-0.349-2.323-1.395s0.349-2.091,1.395-2.323l13.245-3.603
	c1.046-0.232,2.092,0.349,2.324,1.395c0.349,1.046-0.349,2.092-1.278,2.324L1212.92,847.168z"/>
<path id="XMLID_10_" fill-rule="evenodd" clip-rule="evenodd" d="M1116.019,834.503c-4.648,0-8.366-3.718-8.366-8.365
	c0-4.531,3.718-8.25,8.366-8.25c4.531,0,8.249,3.719,8.249,8.25C1124.268,830.785,1120.55,834.503,1116.019,834.503
	L1116.019,834.503z"/>
<path d="M1116.019,838.338c-3.37,0-6.391-1.395-8.599-3.603c-2.207-2.207-3.602-5.229-3.602-8.598c0-3.37,1.395-6.391,3.602-8.599
	c2.208-2.207,5.229-3.485,8.599-3.485c3.369,0,6.39,1.278,8.598,3.485c2.208,2.208,3.485,5.229,3.485,8.599
	c0,3.369-1.277,6.391-3.485,8.598C1122.408,836.943,1119.388,838.338,1116.019,838.338L1116.019,838.338z M1112.881,829.274
	c0.813,0.813,1.859,1.395,3.138,1.395c1.161,0,2.323-0.581,3.137-1.395c0.813-0.697,1.278-1.858,1.278-3.137
	c0-1.162-0.465-2.324-1.278-3.138c-0.813-0.813-1.976-1.277-3.137-1.277c-1.278,0-2.324,0.465-3.138,1.277
	c-0.813,0.813-1.395,1.976-1.395,3.138C1111.486,827.416,1112.067,828.577,1112.881,829.274L1112.881,829.274z"/>
<path id="XMLID_7_" fill-rule="evenodd" clip-rule="evenodd" d="M1288.328,834.503c-4.531,0-8.25-3.718-8.25-8.365
	c0-4.531,3.719-8.25,8.25-8.25c4.647,0,8.365,3.719,8.365,8.25C1296.693,830.785,1292.976,834.503,1288.328,834.503
	L1288.328,834.503z"/>
<path d="M1288.328,838.338c-3.37,0-6.391-1.395-8.599-3.603c-2.207-2.207-3.485-5.229-3.485-8.598c0-3.37,1.278-6.391,3.485-8.599
	c2.208-2.207,5.229-3.485,8.599-3.485c3.369,0,6.391,1.278,8.598,3.485c2.208,2.208,3.602,5.229,3.602,8.599
	c0,3.369-1.394,6.391-3.602,8.598C1294.719,836.943,1291.697,838.338,1288.328,838.338L1288.328,838.338z M1285.19,829.274
	c0.813,0.813,1.976,1.395,3.138,1.395c1.277,0,2.323-0.581,3.137-1.395c0.813-0.697,1.395-1.858,1.395-3.137
	c0-1.162-0.581-2.324-1.395-3.138c-0.813-0.813-1.859-1.277-3.137-1.277c-1.162,0-2.324,0.465-3.138,1.277
	c-0.813,0.813-1.278,1.976-1.278,3.138C1283.912,827.416,1284.377,828.577,1285.19,829.274L1285.19,829.274z"/>
<path d="M1116.019,878.19c-14.408,0-27.421-5.81-36.833-15.221c-9.411-9.411-15.221-22.425-15.221-36.832
	c0-14.292,5.81-27.305,15.221-36.716c9.412-9.412,22.425-15.222,36.833-15.222c11.967,0,22.889,3.951,31.72,10.689
	c-2.673,1.162-5.461,2.44-8.018,3.835c-6.855-4.415-14.988-6.855-23.702-6.855c-12.316,0-23.354,4.88-31.372,12.897
	c-8.017,8.133-13.013,19.171-13.013,31.371c0,12.316,4.996,23.354,13.013,31.371c8.018,8.018,19.056,13.014,31.372,13.014
	c12.199,0,23.354-4.996,31.371-13.014c5.345-5.345,9.295-12.084,11.387-19.636h7.9c-2.207,9.644-7.087,18.241-13.942,25.097
	C1143.322,872.381,1130.31,878.19,1116.019,878.19L1116.019,878.19z M1158.893,814.751c-0.813-2.905-1.859-5.577-3.138-8.134
	c2.44-1.161,4.88-2.091,7.204-2.788c1.627,3.369,2.904,7.088,3.834,10.922H1158.893z"/>
<path d="M1116.019,867.269c-11.387,0-21.612-4.531-29.164-11.968c-7.437-7.436-11.968-17.776-11.968-29.163
	c0-11.271,4.531-21.611,11.968-29.048c7.552-7.436,17.777-12.084,29.164-12.084c7.436,0,14.291,1.976,20.333,5.461
	c-1.278,0.697-2.557,1.511-3.834,2.208c-4.997-2.44-10.574-3.834-16.499-3.834c-10.342,0-19.637,4.183-26.376,10.922
	c-6.738,6.738-10.922,16.15-10.922,26.375c0,10.341,4.184,19.636,10.922,26.375c6.739,6.739,16.034,10.922,26.376,10.922
	c10.225,0,19.636-4.183,26.375-10.922c4.066-4.066,7.203-9.063,9.063-14.64h3.95c-1.975,6.623-5.577,12.548-10.341,17.428
	C1137.63,862.737,1127.289,867.269,1116.019,867.269L1116.019,867.269z M1151.456,814.751c-0.581-1.743-1.278-3.485-2.092-5.112
	c1.162-0.581,2.324-1.162,3.486-1.743c1.046,2.208,1.975,4.415,2.672,6.855H1151.456z"/>
</svg>
