<?xml version="1.0" encoding="utf-8"?>
<!-- Generator: Adobe Illustrator 16.0.0, SVG Export Plug-In . SVG Version: 6.00 Build 0)  -->
<!DOCTYPE svg PUBLIC "-//W3C//DTD SVG 1.1//EN" "http://www.w3.org/Graphics/SVG/1.1/DTD/svg11.dtd">
<svg version="1.1" id="Layer_1" xmlns="http://www.w3.org/2000/svg" xmlns:xlink="http://www.w3.org/1999/xlink" x="0px" y="0px"
	 width="1400px" height="980px" viewBox="0 0 1400 980" enable-background="new 0 0 1400 980" xml:space="preserve">
<g>
	<g>
		<path fill="#010101" d="M671.896,354.749c-62.238,0-112.873-50.634-112.873-112.871c0-62.238,50.635-112.872,112.873-112.872
			s112.87,50.634,112.87,112.872C784.766,304.115,734.134,354.749,671.896,354.749z M671.896,134.408
			c-59.26,0-107.471,48.211-107.471,107.47c0,59.258,48.211,107.47,107.471,107.47c59.258,0,107.468-48.211,107.468-107.47
			C779.364,182.619,731.154,134.408,671.896,134.408z"/>
		<path fill="#010101" d="M745.715,218.203l36.209,18.05c-1.27-25.236-11.053-48.213-26.504-66.174l-4.245,0.659l-6.261,38.658
			L706.401,227.3L677.1,206.473v-47.837l29.836-21.206c-11.012-3.693-22.786-5.724-35.04-5.724c-11.769,0-23.097,1.863-33.729,5.28
			l30.458,21.649v47.837l-28.148,20l-42.229-19.625l-5.848-36.109l-4.056-0.629c-15.414,17.929-25.181,40.854-26.472,66.032
			l38.047-18.964l-0.066-0.405l34.727,16.14l11.749,35.376l-26.307,32.048l-40.746,1.168c13.429,20.817,33.671,36.804,57.584,44.821
			l2.388-1.803l-13.752-37.615l25.521-31.093h43.961l24.156,29.43l-13.925,39.848l1.691,1.242
			c24.021-8.048,44.338-24.135,57.771-45.079l-38.413-0.571l-26.788-32.632l11.137-33.532L745.715,218.203z"/>
	</g>
	<g>
		<g>
			<path fill="#010101" d="M977.717,314.693c-15.772,0-31.263-4.361-44.796-12.614c-19.657-11.986-33.47-30.909-38.896-53.285
				c-5.426-22.375-1.811-45.523,10.176-65.181c15.78-25.882,43.321-41.334,73.671-41.334c15.772,0,31.262,4.361,44.795,12.612
				c19.657,11.988,33.471,30.911,38.896,53.286c5.424,22.375,1.811,45.525-10.176,65.181
				C1035.606,299.241,1008.065,314.693,977.717,314.693z M977.872,147.681c-28.451,0-54.267,14.484-69.06,38.744
				c-11.234,18.426-14.622,40.123-9.537,61.097c5.084,20.972,18.031,38.709,36.457,49.944c12.687,7.737,27.205,11.825,41.984,11.825
				c28.449,0,54.267-14.484,69.059-38.744c11.235-18.426,14.622-40.124,9.537-61.097c-5.086-20.972-18.033-38.711-36.457-49.945
				C1007.169,151.77,992.651,147.681,977.872,147.681z"/>
			<g>
				<path fill="#010101" d="M977.607,344.602c-21.244,0-42.089-5.862-60.277-16.953c-6.24-3.804-12.132-8.2-17.513-13.065
					c-2.067-1.867-3.284-4.43-3.425-7.215c-0.141-2.784,0.811-5.456,2.68-7.523c1.977-2.184,4.798-3.437,7.742-3.437
					c2.588,0,5.072,0.956,6.996,2.693c4.415,3.99,9.254,7.599,14.386,10.727c14.919,9.098,32.014,13.906,49.436,13.906
					c33.606,0,64.076-17.066,81.505-45.65c27.349-44.853,13.107-103.591-31.745-130.94c-4.468-2.725-9.168-5.09-13.971-7.033
					c-2.581-1.042-4.603-3.029-5.692-5.594c-1.089-2.568-1.112-5.407-0.065-7.995c1.604-3.963,5.401-6.522,9.677-6.522
					c1.343,0,2.659,0.256,3.91,0.762c5.862,2.375,11.583,5.255,17.008,8.564c54.677,33.338,72.038,104.946,38.698,159.625
					C1055.708,323.798,1018.568,344.602,977.607,344.602z M906.814,301.81c-1.421,0-2.782,0.604-3.735,1.658
					c-0.901,0.997-1.36,2.286-1.291,3.629c0.066,1.342,0.653,2.578,1.65,3.479c5.132,4.639,10.751,8.832,16.704,12.459
					c17.342,10.575,37.213,16.164,57.465,16.164c39.062,0,74.477-19.835,94.737-53.061c31.788-52.136,15.235-120.412-36.899-152.201
					c-5.175-3.156-10.632-5.904-16.222-8.168c-0.604-0.244-1.238-0.368-1.884-0.368c-2.063,0-3.896,1.234-4.671,3.146
					c-0.505,1.249-0.493,2.619,0.032,3.858c0.524,1.236,1.499,2.193,2.744,2.696c5.076,2.053,10.039,4.552,14.758,7.429
					c47.396,28.899,62.443,90.969,33.546,138.364c-18.418,30.206-50.61,48.24-86.117,48.24c-18.415,0-36.481-5.083-52.249-14.695
					c-5.417-3.305-10.529-7.116-15.192-11.332C909.263,302.271,908.063,301.81,906.814,301.81z"/>
			</g>
			<path fill="#010101" d="M1021.258,159.899c-0.479,0-0.964-0.126-1.402-0.394c-1.274-0.777-1.677-2.44-0.901-3.712l7.538-12.361
				c0.778-1.275,2.441-1.677,3.711-0.9c1.274,0.776,1.678,2.439,0.9,3.712l-7.536,12.361
				C1023.059,159.439,1022.17,159.899,1021.258,159.899z"/>
			<path fill="#010101" d="M926.786,314.835c-0.479,0-0.964-0.126-1.403-0.394c-1.273-0.777-1.676-2.44-0.899-3.712l7.538-12.362
				c0.777-1.274,2.439-1.677,3.711-0.9c1.274,0.777,1.678,2.439,0.9,3.712l-7.537,12.362
				C928.586,314.375,927.697,314.835,926.786,314.835z"/>
			<path fill="#010101" d="M953.335,175.536c2.844,2.992-0.024,7.549,2.664,8.349c2.688,0.798,8.355-13.401,8.762-18.2
				c0.404-4.796-10.603-6.463-10.603-6.463c-4.932-1.261-2.06,3.789-3.362,5.517c-1.304,1.729-7.135-0.986-8.061,1.908
				C941.81,169.544,950.491,172.54,953.335,175.536z M922.809,246.207c-0.287-5.044,2.355-0.414,1.569-2.575
				c-0.786-2.158-8.616-1.721-8.616-1.721s-4.022,4.527-1.146,6.699c2.878,2.176,7.101,5.59,10.01,3.581
				C927.532,250.181,923.094,251.255,922.809,246.207z M938.279,210.491c4.11-6.74,7.31-6.471,5.231-8.577
				c-2.078-2.109,0.931-5.739-7.831-4.775c-8.759,0.961-11.787,2.48-15.106,1.717c-3.316-0.762-6.075-2.445-8.558,0.248
				c-2.481,2.689-4.871,10.059-6.726,11.03c-1.854,0.973-6.808,6.36-6.313,10.021c0.491,3.664,2.711,11.743,4.601,14.158
				c1.893,2.413,10.024,1.486,13.492-1.444c0,0-2.969-6.854,5.792-9.499C931.621,220.726,934.169,217.234,938.279,210.491z
				 M971.215,275.976c0.341-1.474,1.206-19.442-2.846-21.071c-4.049-1.631-12.995,1.32-18.392-1.548
				c-5.397-2.87-10.861-4.939-11.982-3.101c-1.12,1.837-8.303-0.86-7.345,3.084c0.954,3.947-2.445,6.077,1.165,9.121
				c3.611,3.041,7.063,2.204,11.339,6.913c4.274,4.708,5.209,3.175,5.977,7.429c0.771,4.251-0.856,8.303,1.512,12.69
				c2.368,4.389,3.662,4.334,3.154,6.547c-0.509,2.211,1.796,9.921,1.796,9.921l2.923-4.795c0,0-1.145-5.469,2.725-13.197
				C965.112,280.241,970.874,277.447,971.215,275.976z M1029.396,234.104c-2.625-3.282-5.449-4.166-5.792-7.736
				c-0.346-3.574-2.55-13.745-5.323-13.335c-2.158,0.319-3.091,7.365-9.437,5.597c-6.349-1.77-7.864-4.796-12.864-2.8
				c-5.002,1.995-14.089-1.025-12.535,5.39c1.555,6.411-1.337,8.01,6.784,12.121c8.12,4.111,9.068,0.485,13.89,6.367
				c4.82,5.883,10.457,9.739,10.544,14.419c0.093,4.678,0.113,10.157,4.366,9.386c4.253-0.771,4.203-14.475,7.516-19.911
				C1029.859,238.168,1032.018,237.385,1029.396,234.104z M1060.852,219.948c1.509-4.543-9.556-46.294-46.403-64.742
				c-3.589-1.795-0.368,8.187-5.044,8.274c-4.682,0.091-9.398-3.206-10.653,0.233c-1.256,3.438,10.061,4.873,9.335,11.576
				c-0.724,6.705-3.451,11.769-5.555,12.164c-2.105,0.4-10.538,2.404-8.213,7.604c2.325,5.203,5.016,7.685,10.443,6.369
				c5.426-1.315,11.497-1.396,13.238,2.187c1.74,3.583,4.923,5.945,4.923,5.945s0.702,5.053,3.064,1.87
				c2.362-3.187,2.22-9.156,6.495-4.45c4.275,4.71,4.716,3.297,6.896,7.992c2.185,4.695,0.636,8.374,4.467,9.448
				C1047.677,225.494,1059.34,224.493,1060.852,219.948z"/>
		</g>
		<path fill="#010101" d="M1038.87,398.639H928.602c-1.491,0-2.7-1.209-2.7-2.701v-18.246c0-1.492,1.209-2.701,2.7-2.701h110.269
			c1.491,0,2.701,1.209,2.701,2.701v18.246C1041.571,397.43,1040.361,398.639,1038.87,398.639z M931.303,393.237h104.867v-12.845
			H931.303V393.237z"/>
		<path fill="#010101" d="M1015.864,380.393h-64.257c-1.492,0-2.7-1.209-2.7-2.701v-18.245c0-1.492,1.208-2.701,2.7-2.701h64.257
			c1.491,0,2.701,1.209,2.701,2.701v18.245C1018.565,379.183,1017.355,380.393,1015.864,380.393z M954.309,374.991h58.855v-12.843
			h-58.855V374.991z"/>
		<path fill="#010101" d="M983.735,362.147c-1.491,0-2.701-1.209-2.701-2.701V341.9c0-1.491,1.21-2.701,2.701-2.701
			s2.701,1.209,2.701,2.701v17.546C986.437,360.938,985.227,362.147,983.735,362.147z"/>
	</g>
	<g>
		<g>
			<path fill="#010101" d="M487.785,347.098H337.056c-1.492,0-2.701-1.209-2.701-2.701V139.358c0-1.491,1.209-2.701,2.701-2.701
				h150.729c1.49,0,2.701,1.209,2.701,2.701v205.039C490.486,345.889,489.275,347.098,487.785,347.098z M339.757,341.696h145.327
				V142.06H339.757V341.696z"/>
			<path fill="#010101" d="M350.218,162.992c-3.224,0-5.846-2.574-5.846-5.739s2.622-5.739,5.846-5.739
				c3.223,0,5.846,2.574,5.846,5.739S353.441,162.992,350.218,162.992z M350.218,156.915c-0.265,0-0.444,0.174-0.444,0.338
				s0.18,0.337,0.444,0.337c0.263,0,0.445-0.178,0.445-0.337S350.481,156.915,350.218,156.915z"/>
			<path fill="#010101" d="M350.218,159.954h-21.782c-1.493,0-2.701-1.209-2.701-2.701c0-1.492,1.208-2.701,2.701-2.701h21.782
				c1.492,0,2.701,1.209,2.701,2.701C352.919,158.744,351.71,159.954,350.218,159.954z"/>
			<path fill="#010101" d="M350.218,187.074c-3.224,0-5.846-2.574-5.846-5.739s2.622-5.739,5.846-5.739
				c3.223,0,5.846,2.574,5.846,5.739S353.441,187.074,350.218,187.074z M350.218,180.997c-0.265,0-0.444,0.174-0.444,0.338
				c0,0.163,0.18,0.337,0.444,0.337c0.263,0,0.445-0.178,0.445-0.337C350.663,181.175,350.481,180.997,350.218,180.997z"/>
			<path fill="#010101" d="M350.218,184.036h-21.782c-1.493,0-2.701-1.209-2.701-2.701c0-1.492,1.208-2.701,2.701-2.701h21.782
				c1.492,0,2.701,1.209,2.701,2.701C352.919,182.826,351.71,184.036,350.218,184.036z"/>
			<path fill="#010101" d="M350.218,211.156c-3.224,0-5.846-2.574-5.846-5.739s2.622-5.739,5.846-5.739
				c3.223,0,5.846,2.574,5.846,5.739S353.441,211.156,350.218,211.156z M350.218,205.079c-0.265,0-0.444,0.174-0.444,0.337
				s0.18,0.338,0.444,0.338c0.263,0,0.445-0.178,0.445-0.338S350.481,205.079,350.218,205.079z"/>
			<path fill="#010101" d="M350.218,208.118h-21.782c-1.493,0-2.701-1.209-2.701-2.701c0-1.491,1.208-2.701,2.701-2.701h21.782
				c1.492,0,2.701,1.209,2.701,2.701C352.919,206.908,351.71,208.118,350.218,208.118z"/>
			<path fill="#010101" d="M350.218,235.238c-3.224,0-5.846-2.574-5.846-5.739s2.622-5.739,5.846-5.739
				c3.223,0,5.846,2.574,5.846,5.739S353.441,235.238,350.218,235.238z M350.218,229.161c-0.265,0-0.444,0.174-0.444,0.337
				s0.18,0.337,0.444,0.337c0.263,0,0.445-0.178,0.445-0.337S350.481,229.161,350.218,229.161z"/>
			<path fill="#010101" d="M350.218,232.199h-21.782c-1.493,0-2.701-1.209-2.701-2.701s1.208-2.701,2.701-2.701h21.782
				c1.492,0,2.701,1.209,2.701,2.701S351.71,232.199,350.218,232.199z"/>
			<path fill="#010101" d="M350.218,259.32c-3.224,0-5.846-2.574-5.846-5.739s2.622-5.739,5.846-5.739
				c3.223,0,5.846,2.574,5.846,5.739S353.441,259.32,350.218,259.32z M350.218,253.243c-0.265,0-0.444,0.174-0.444,0.338
				s0.18,0.337,0.444,0.337c0.263,0,0.445-0.178,0.445-0.337S350.481,253.243,350.218,253.243z"/>
			<path fill="#010101" d="M350.218,256.281h-21.782c-1.493,0-2.701-1.209-2.701-2.701c0-1.492,1.208-2.701,2.701-2.701h21.782
				c1.492,0,2.701,1.209,2.701,2.701C352.919,255.072,351.71,256.281,350.218,256.281z"/>
			<path fill="#010101" d="M350.218,283.401c-3.224,0-5.846-2.574-5.846-5.739s2.622-5.739,5.846-5.739
				c3.223,0,5.846,2.574,5.846,5.739S353.441,283.401,350.218,283.401z M350.218,277.325c-0.265,0-0.444,0.174-0.444,0.337
				c0,0.164,0.18,0.338,0.444,0.338c0.263,0,0.445-0.178,0.445-0.338C350.663,277.503,350.481,277.325,350.218,277.325z"/>
			<path fill="#010101" d="M350.218,280.363h-21.782c-1.493,0-2.701-1.209-2.701-2.701c0-1.491,1.208-2.701,2.701-2.701h21.782
				c1.492,0,2.701,1.209,2.701,2.701C352.919,279.154,351.71,280.363,350.218,280.363z"/>
			<path fill="#010101" d="M350.218,307.483c-3.224,0-5.846-2.574-5.846-5.739s2.622-5.739,5.846-5.739
				c3.223,0,5.846,2.574,5.846,5.739S353.441,307.483,350.218,307.483z M350.218,301.407c-0.265,0-0.444,0.174-0.444,0.337
				s0.18,0.338,0.444,0.338c0.263,0,0.445-0.178,0.445-0.338S350.481,301.407,350.218,301.407z"/>
			<path fill="#010101" d="M350.218,304.445h-21.782c-1.493,0-2.701-1.209-2.701-2.701c0-1.491,1.208-2.701,2.701-2.701h21.782
				c1.492,0,2.701,1.209,2.701,2.701C352.919,303.236,351.71,304.445,350.218,304.445z"/>
			<path fill="#010101" d="M350.218,331.565c-3.224,0-5.846-2.574-5.846-5.739s2.622-5.739,5.846-5.739
				c3.223,0,5.846,2.574,5.846,5.739S353.441,331.565,350.218,331.565z M350.218,325.488c-0.265,0-0.444,0.174-0.444,0.338
				s0.18,0.337,0.444,0.337c0.263,0,0.445-0.178,0.445-0.337S350.481,325.488,350.218,325.488z"/>
			<path fill="#010101" d="M350.218,328.527h-21.782c-1.493,0-2.701-1.209-2.701-2.701c0-1.492,1.208-2.701,2.701-2.701h21.782
				c1.492,0,2.701,1.209,2.701,2.701C352.919,327.317,351.71,328.527,350.218,328.527z"/>
		</g>
		<path fill="#010101" d="M455.868,201.591h-79.674c-1.492,0-2.701-1.209-2.701-2.701v-35.111c0-1.491,1.209-2.701,2.701-2.701
			h79.674c1.492,0,2.701,1.209,2.701,2.701v35.111C458.569,200.382,457.36,201.591,455.868,201.591z M378.895,196.189h74.272V166.48
			h-74.272V196.189z"/>
		<path fill="#010101" d="M455.868,259.32h-79.674c-1.492,0-2.701-1.209-2.701-2.701c0-1.491,1.209-2.701,2.701-2.701h79.674
			c1.492,0,2.701,1.209,2.701,2.701C458.569,258.11,457.36,259.32,455.868,259.32z"/>
		<path fill="#010101" d="M455.868,274.851h-79.674c-1.492,0-2.701-1.209-2.701-2.701s1.209-2.701,2.701-2.701h79.674
			c1.492,0,2.701,1.209,2.701,2.701S457.36,274.851,455.868,274.851z"/>
		<path fill="#010101" d="M455.868,290.382h-79.674c-1.492,0-2.701-1.209-2.701-2.701c0-1.492,1.209-2.701,2.701-2.701h79.674
			c1.492,0,2.701,1.209,2.701,2.701C458.569,289.172,457.36,290.382,455.868,290.382z"/>
		<path fill="#010101" d="M455.868,305.913h-79.674c-1.492,0-2.701-1.209-2.701-2.701c0-1.491,1.209-2.701,2.701-2.701h79.674
			c1.492,0,2.701,1.209,2.701,2.701C458.569,304.704,457.36,305.913,455.868,305.913z"/>
	</g>
	<g>
		<path fill="#010101" d="M1160.954,409.697h-69.719c-6.869,0-12.46-5.588-12.46-12.457c0-6.871,5.591-12.46,12.46-12.46h69.719
			c6.871,0,12.46,5.589,12.46,12.46C1173.414,404.109,1167.825,409.697,1160.954,409.697z M1091.235,390.182
			c-3.892,0-7.058,3.167-7.058,7.058c0,3.89,3.166,7.055,7.058,7.055h69.719c3.894,0,7.059-3.165,7.059-7.055
			c0-3.892-3.165-7.058-7.059-7.058H1091.235z"/>
		<path fill="#010101" d="M1190.26,643.896h-60.9c-1.016,0-2.086-0.065-3.265-0.201c-1.178,0.136-2.247,0.201-3.263,0.201h-60.902
			c-11.424,0-21.747-6.639-26.94-17.327c-5.162-10.617-4.271-23.239,2.327-32.938l56.953-83.74V406.996
			c0-1.492,1.209-2.701,2.701-2.701h58.25c1.49,0,2.701,1.209,2.701,2.701v102.896l56.951,83.738
			c6.598,9.699,7.491,22.321,2.329,32.938C1212.009,637.257,1201.685,643.896,1190.26,643.896z M1126.095,638.273
			c0.112,0,0.224,0.007,0.335,0.021c1.086,0.135,2.044,0.2,2.93,0.2h60.9c9.34,0,17.801-5.475,22.084-14.286
			c4.318-8.883,3.577-19.436-1.938-27.54l-57.419-84.427c-0.305-0.448-0.467-0.978-0.467-1.52V409.697h-52.848v101.025
			c0,0.542-0.164,1.071-0.469,1.52l-57.42,84.428c-5.512,8.104-6.254,18.657-1.936,27.54c4.281,8.812,12.744,14.286,22.082,14.286
			h60.902c0.883,0,1.842-0.065,2.93-0.2C1125.873,638.28,1125.983,638.273,1126.095,638.273z"/>
		<path fill="#010101" d="M1118.163,535.79c-6.448,0-11.694-5.246-11.694-11.693c0-6.449,5.246-11.695,11.694-11.695
			s11.692,5.246,11.692,11.695C1129.855,530.544,1124.611,535.79,1118.163,535.79z M1118.163,517.804
			c-3.471,0-6.293,2.823-6.293,6.293s2.822,6.292,6.293,6.292c3.469,0,6.291-2.822,6.291-6.292S1121.632,517.804,1118.163,517.804z"
			/>
		<path fill="#010101" d="M1203.146,601.608l-35.016-51.488h-21.076c0,3.593-2.912,6.505-6.506,6.505
			c-3.592,0-6.505-2.912-6.505-6.505h-49.983l-35.018,51.486c-3.691,5.429-4.203,12.794-1.3,18.765
			c2.802,5.765,8.238,9.344,14.187,9.344h60.902c0.52,0,1.123-0.044,1.849-0.135c0.47-0.058,0.941-0.086,1.414-0.086
			c0.472,0,0.946,0.029,1.416,0.088c0.724,0.089,1.328,0.133,1.849,0.133h60.9c5.95,0,11.387-3.579,14.187-9.344
			C1207.349,614.398,1206.84,607.036,1203.146,601.608z M1094.31,594.127c-3.487,0-6.314-2.828-6.314-6.314
			c0-3.488,2.827-6.314,6.314-6.314s6.314,2.826,6.314,6.314C1100.624,591.299,1097.797,594.127,1094.31,594.127z M1118.163,579.586
			c-2.854,0-5.167-2.313-5.167-5.167c0-2.854,2.313-5.165,5.167-5.165c2.854,0,5.166,2.312,5.166,5.165
			C1123.329,577.273,1121.018,579.586,1118.163,579.586z M1147.055,614.601c-2.007,0-3.635-1.628-3.635-3.635
			c0-2.009,1.628-3.636,3.635-3.636s3.636,1.627,3.636,3.636C1150.69,612.973,1149.062,614.601,1147.055,614.601z M1150.755,585.516
			c-4.966,0-8.993-4.025-8.993-8.993c0-4.966,4.027-8.992,8.993-8.992s8.993,4.026,8.993,8.992
			C1159.748,581.49,1155.721,585.516,1150.755,585.516z"/>
		<path fill="#010101" d="M1140.549,559.326c-5.075,0-9.206-4.131-9.206-9.206c0-5.076,4.131-9.207,9.206-9.207
			c5.076,0,9.207,4.131,9.207,9.207C1149.756,555.195,1145.625,559.326,1140.549,559.326z M1140.549,546.315
			c-2.098,0-3.804,1.706-3.804,3.805c0,2.098,1.706,3.804,3.804,3.804c2.099,0,3.805-1.706,3.805-3.804
			C1144.354,548.021,1142.647,546.315,1140.549,546.315z"/>
	</g>
	<g>
		<g>
			<path fill="#010101" d="M943.309,703.242c-0.715,0-1.43-0.282-1.959-0.843l-26.561-28.023c-1.025-1.083-0.979-2.792,0.104-3.817
				c1.082-1.029,2.791-0.982,3.817,0.102l24.702,26.063l21.536-20.412l-60.518-63.856l-21.537,20.41l16.088,16.977
				c1.026,1.083,0.979,2.793-0.103,3.819c-1.083,1.024-2.795,0.979-3.818-0.104l-17.945-18.937c-0.493-0.521-0.76-1.215-0.741-1.932
				c0.021-0.716,0.323-1.395,0.844-1.888l25.457-24.126c1.084-1.027,2.794-0.979,3.819,0.104l64.231,67.777
				c1.026,1.083,0.981,2.792-0.102,3.817l-25.457,24.127C944.644,702.997,943.977,703.242,943.309,703.242z"/>
			<path fill="#010101" d="M881.659,633.015c-0.023,0-0.047,0-0.071-0.002c-0.717-0.019-1.395-0.321-1.889-0.841l-18.906-19.952
				c-1.026-1.082-0.98-2.791,0.102-3.817l20.287-19.227c0.52-0.491,1.219-0.784,1.931-0.739c0.715,0.019,1.396,0.321,1.888,0.841
				l18.907,19.952c1.025,1.082,0.98,2.792-0.102,3.817l-20.287,19.228C883.015,632.749,882.351,633.015,881.659,633.015z
				 M866.57,610.465l15.192,16.031l16.366-15.512l-15.191-16.031L866.57,610.465z"/>
			<path fill="#010101" d="M959.264,714.898c-0.715,0-1.43-0.282-1.96-0.842l-13.37-14.107c-1.025-1.082-0.979-2.793,0.104-3.819
				l20.287-19.225c1.082-1.027,2.791-0.979,3.816,0.103l13.37,14.107c0.493,0.52,0.76,1.215,0.74,1.931
				c-0.021,0.716-0.323,1.396-0.843,1.889l-20.288,19.225C960.598,714.653,959.931,714.898,959.264,714.898z M949.713,698.194
				l9.653,10.186l16.365-15.51l-9.653-10.186L949.713,698.194z"/>
			<path fill="#010101" d="M984.969,731.635c-0.707,0-1.414-0.275-1.942-0.824l-20.732-21.448c-0.501-0.518-0.773-1.214-0.757-1.936
				c0.016-0.72,0.318-1.404,0.841-1.9l10.342-9.801c1.076-1.022,2.772-0.982,3.801,0.083l20.731,21.447
				c0.501,0.518,0.775,1.214,0.759,1.936c-0.016,0.72-0.319,1.404-0.843,1.9l-10.343,9.803
				C986.303,731.39,985.636,731.635,984.969,731.635z M968.074,707.57l16.976,17.563l6.423-6.086l-16.978-17.563L968.074,707.57z"/>
			<path fill="#010101" d="M855.593,619.848c-0.023,0-0.048,0-0.072-0.001c-0.717-0.019-1.396-0.322-1.888-0.842l-7.216-7.614
				c-1.026-1.083-0.981-2.792,0.102-3.819l34.605-32.796c0.521-0.492,1.219-0.795,1.931-0.738c0.718,0.018,1.396,0.321,1.889,0.841
				l7.216,7.614c1.026,1.083,0.98,2.792-0.103,3.819l-34.605,32.797C856.948,619.583,856.284,619.848,855.593,619.848z
				 M852.195,609.636l3.5,3.693l30.686-29.081l-3.5-3.694L852.195,609.636z"/>
		</g>
		<path fill="#010101" d="M908.842,677.55c-9.537,0-17.296-7.758-17.296-17.295s7.759-17.296,17.296-17.296
			s17.296,7.759,17.296,17.296S918.379,677.55,908.842,677.55z M908.842,648.36c-6.56,0-11.894,5.336-11.894,11.895
			c0,6.558,5.334,11.894,11.894,11.894c6.559,0,11.894-5.336,11.894-11.894C920.735,653.696,915.4,648.36,908.842,648.36z"/>
		<path fill="#010101" d="M908.842,668.689c-4.652,0-8.435-3.783-8.435-8.435s3.782-8.437,8.435-8.437
			c4.649,0,8.435,3.785,8.435,8.437S913.491,668.689,908.842,668.689z M908.842,657.221c-1.672,0-3.033,1.36-3.033,3.034
			c0,1.672,1.361,3.033,3.033,3.033s3.033-1.361,3.033-3.033C911.875,658.581,910.514,657.221,908.842,657.221z"/>
		<path fill="#010101" d="M950.177,779.848c-6.723,0-12.191-5.469-12.191-12.19s5.469-12.19,12.191-12.19
			c6.721,0,12.19,5.469,12.19,12.19S956.897,779.848,950.177,779.848z M950.177,760.868c-3.745,0-6.79,3.045-6.79,6.789
			s3.045,6.789,6.79,6.789c3.743,0,6.789-3.045,6.789-6.789S953.92,760.868,950.177,760.868z"/>
		<path fill="#010101" d="M971.308,774.043c-1.344,0-2.51-1.003-2.677-2.371c-0.183-1.481,0.87-2.829,2.351-3.011l62.884-7.725
			l-0.451-3.674l-63.563,7.808c-1.482,0.171-2.829-0.872-3.01-2.352c-0.182-1.481,0.87-2.829,2.352-3.011l66.244-8.136
			c1.48-0.177,2.828,0.872,3.009,2.352l1.109,9.035c0.182,1.48-0.87,2.828-2.35,3.01l-65.565,8.054
			C971.527,774.036,971.417,774.043,971.308,774.043z"/>
		<path fill="#010101" d="M987.351,834.101h-74.854c-0.855,0-1.663-0.406-2.172-1.095c-0.51-0.689-0.662-1.578-0.41-2.397
			c0.144-0.473,14.483-47.375,16.525-63.294c0.252-1.975,0.693-3.928,1.311-5.807c1.252-4.576,3.843-8.613,7.499-11.675
			c3.99-3.536,8.996-5.43,14.422-5.43l0.239,0.006l0.267-0.006c5.426,0,10.432,1.894,14.478,5.477
			c3.601,3.017,6.19,7.052,7.443,11.628c0.615,1.874,1.058,3.827,1.311,5.806c2.041,15.92,16.381,62.822,16.524,63.295
			c0.252,0.819,0.1,1.708-0.41,2.397C989.013,833.694,988.207,834.101,987.351,834.101z M916.137,828.699h67.573
			c-3.415-11.345-13.87-46.74-15.66-60.698c-0.212-1.661-0.584-3.298-1.104-4.864c-0.016-0.049-0.031-0.098-0.045-0.146
			c-0.953-3.534-2.95-6.652-5.772-9.018c-3.098-2.743-6.866-4.168-10.952-4.168c-0.019,0-0.192,0.007-0.211,0.007l-0.248-0.005
			c-0.002,0-0.005,0-0.008,0c-4.13,0-7.896,1.424-10.938,4.117c-2.878,2.413-4.874,5.532-5.829,9.066
			c-0.014,0.049-0.026,0.098-0.042,0.145c-0.521,1.572-0.893,3.209-1.105,4.865C930.008,781.959,919.553,817.354,916.137,828.699z"
			/>
		<path fill="#010101" d="M933.523,758.324c-0.245,0-0.493-0.034-0.741-0.104c-16.331-4.65-29.669-16.868-35.678-32.683
			c-6.662-17.534-3.587-37.629,8.026-52.443c0.92-1.172,2.619-1.378,3.793-0.459c1.174,0.921,1.379,2.618,0.459,3.793
			c-10.453,13.333-13.223,31.416-7.228,47.192c5.404,14.227,17.408,25.219,32.106,29.404c1.436,0.408,2.266,1.903,1.857,3.338
			C935.781,757.549,934.7,758.324,933.523,758.324z"/>
		<path fill="#010101" d="M928.108,776.286c-0.249,0-0.502-0.036-0.753-0.108c-22.195-6.428-39.615-22.456-47.793-43.976
			c-9.405-24.752-4.561-52.7,12.646-72.938c0.967-1.139,2.671-1.277,3.808-0.309c1.137,0.965,1.273,2.67,0.309,3.806
			c-15.931,18.738-20.417,44.611-11.711,67.523c7.567,19.917,23.695,34.753,44.244,40.705c1.433,0.414,2.258,1.912,1.844,3.346
			C930.358,775.517,929.28,776.286,928.108,776.286z"/>
		<path fill="#010101" d="M1070.456,856.144H862.754c-1.493,0-2.701-1.209-2.701-2.701v-22.043c0-1.491,1.208-2.7,2.701-2.7h207.702
			c1.49,0,2.7,1.209,2.7,2.7v22.043C1073.156,854.935,1071.946,856.144,1070.456,856.144z M865.454,850.742h202.301v-16.642H865.454
			V850.742z"/>
	</g>
	<g>
		<path fill="#010101" d="M742.467,860H583.01c-8.282,0-15.021-6.739-15.021-15.021V618.384c0-8.281,6.739-15.021,15.021-15.021
			h159.457c8.282,0,15.021,6.739,15.021,15.021v226.595C757.487,853.261,750.749,860,742.467,860z M583.01,608.229
			c-5.601,0-10.156,4.555-10.156,10.155v226.595c0,5.602,4.555,10.156,10.156,10.156h159.457c5.601,0,10.156-4.555,10.156-10.156
			V618.384c0-5.601-4.556-10.155-10.156-10.155H583.01z"/>
		<path fill="#010101" d="M626.861,699.23h-27.634c-1.204,0-2.18,0.978-2.18,2.182v16.504c0,1.203,0.976,2.182,2.18,2.182h27.634
			c1.204,0,2.183-0.979,2.183-2.182v-16.504C629.044,700.208,628.065,699.23,626.861,699.23z"/>
		<path fill="#010101" d="M727.337,671.342h-128.11c-2.544,0-4.612-2.069-4.612-4.613v-28.699c0-2.544,2.068-4.611,4.612-4.611
			h128.11c2.544,0,4.615,2.067,4.615,4.611v28.699C731.952,669.272,729.881,671.342,727.337,671.342z M599.479,666.477h127.609
			v-28.195H599.479V666.477z"/>
		<path fill="#010101" d="M626.861,733.354h-27.634c-1.204,0-2.18,0.978-2.18,2.182v16.504c0,1.205,0.976,2.182,2.18,2.182h27.634
			c1.204,0,2.183-0.977,2.183-2.182v-16.504C629.044,734.331,628.065,733.354,626.861,733.354z"/>
		<path fill="#010101" d="M626.861,767.477h-27.634c-1.204,0-2.18,0.978-2.18,2.183v16.503c0,1.205,0.976,2.182,2.18,2.182h27.634
			c1.204,0,2.183-0.977,2.183-2.182v-16.503C629.044,768.454,628.065,767.477,626.861,767.477z"/>
		<path fill="#010101" d="M626.861,801.603h-27.634c-1.204,0-2.18,0.976-2.18,2.18v16.504c0,1.204,0.976,2.182,2.18,2.182h27.634
			c1.204,0,2.183-0.978,2.183-2.182v-16.504C629.044,802.578,628.065,801.603,626.861,801.603z"/>
		<path fill="#010101" d="M676.555,699.23H648.92c-1.205,0-2.181,0.978-2.181,2.182v16.504c0,1.203,0.976,2.182,2.181,2.182h27.635
			c1.204,0,2.181-0.979,2.181-2.182v-16.504C678.736,700.208,677.759,699.23,676.555,699.23z"/>
		<path fill="#010101" d="M676.555,733.354H648.92c-1.205,0-2.181,0.978-2.181,2.182v16.504c0,1.205,0.976,2.182,2.181,2.182h27.635
			c1.204,0,2.181-0.977,2.181-2.182v-16.504C678.736,734.331,677.759,733.354,676.555,733.354z"/>
		<path fill="#010101" d="M676.555,767.477H648.92c-1.205,0-2.181,0.978-2.181,2.183v16.503c0,1.205,0.976,2.182,2.181,2.182h27.635
			c1.204,0,2.181-0.977,2.181-2.182v-16.503C678.736,768.454,677.759,767.477,676.555,767.477z"/>
		<path fill="#010101" d="M676.555,801.603H648.92c-1.205,0-2.181,0.976-2.181,2.18v16.504c0,1.204,0.976,2.182,2.181,2.182h27.635
			c1.204,0,2.181-0.978,2.181-2.182v-16.504C678.736,802.578,677.759,801.603,676.555,801.603z"/>
		<path fill="#010101" d="M726.249,699.23h-27.635c-1.206,0-2.183,0.978-2.183,2.182v16.504c0,1.203,0.977,2.182,2.183,2.182h27.635
			c1.204,0,2.181-0.979,2.181-2.182v-16.504C728.43,700.208,727.453,699.23,726.249,699.23z"/>
		<path fill="#010101" d="M726.249,733.354h-27.635c-1.206,0-2.183,0.978-2.183,2.182v16.504c0,1.205,0.977,2.182,2.183,2.182
			h27.635c1.204,0,2.181-0.977,2.181-2.182v-16.504C728.43,734.331,727.453,733.354,726.249,733.354z"/>
		<path fill="#010101" d="M726.249,767.477h-27.635c-1.206,0-2.183,0.978-2.183,2.183v16.503c0,1.205,0.977,2.182,2.183,2.182
			h27.635c1.204,0,2.181-0.977,2.181-2.182v-16.503C728.43,768.454,727.453,767.477,726.249,767.477z"/>
		<path fill="#010101" d="M726.249,801.603h-27.635c-1.206,0-2.183,0.976-2.183,2.18v16.504c0,1.204,0.977,2.182,2.183,2.182h27.635
			c1.204,0,2.181-0.978,2.181-2.182v-16.504C728.43,802.578,727.453,801.603,726.249,801.603z"/>
	</g>
	<g>
		<polygon fill="#010101" points="318.414,781.235 307.289,780.465 431.031,658.689 436.894,662.755 		"/>
		<polygon fill="#010101" points="331.351,801.661 330.376,790.607 450.269,670.717 450.124,682.889 		"/>
		<path fill="#010101" d="M329.083,794.604c-0.691,0-1.382-0.264-1.909-0.791c-1.055-1.056-1.055-2.765,0-3.819l120.443-120.444
			c1.055-1.055,2.766-1.055,3.819,0c1.055,1.056,1.055,2.765,0,3.819L330.992,793.813
			C330.465,794.34,329.774,794.604,329.083,794.604z"/>
		<path fill="#010101" d="M318.559,783.791c-0.691,0-1.382-0.264-1.91-0.791c-1.055-1.056-1.055-2.765,0-3.819l120.247-120.246
			c1.053-1.055,2.764-1.055,3.819,0s1.055,2.765,0,3.819L320.469,783C319.942,783.527,319.25,783.791,318.559,783.791z"/>
		<path fill="#010101" d="M304.764,785.561c-0.691,0-1.384-0.264-1.91-0.791c-1.055-1.055-1.055-2.765,0-3.819l122.665-122.666
			c1.055-1.055,2.764-1.055,3.819,0c1.055,1.056,1.055,2.765,0,3.819L306.673,784.77
			C306.147,785.297,305.455,785.561,304.764,785.561z"/>
		<path fill="#010101" d="M327.28,808.434c-0.691,0-1.382-0.264-1.909-0.792c-1.055-1.055-1.055-2.764,0-3.818l122.844-122.845
			c1.052-1.055,2.764-1.055,3.819,0c1.055,1.056,1.055,2.765,0,3.819L329.189,807.642
			C328.663,808.17,327.971,808.434,327.28,808.434z"/>
		<path fill="#010101" d="M450.124,685.59c-0.691,0-1.384-0.265-1.91-0.792c-1.055-1.055-1.055-2.764,0-3.819l0,0
			c0.861-0.86,0.973-2.706,0.301-4.932c-0.856-2.831-2.886-5.994-5.568-8.676c-3.648-3.648-8.087-6.006-11.31-6.006
			c-1.037,0-1.81,0.249-2.3,0.738c-1.055,1.055-2.764,1.055-3.819,0c-1.055-1.055-1.055-2.764,0-3.819l0,0
			c0.002-0.002,0.005-0.005,0.008-0.009l44.771-44.769c1.518-1.519,3.636-2.322,6.121-2.322c4.724,0,10.381,2.836,15.13,7.586
			c7.558,7.558,9.821,16.694,5.263,21.25l-44.777,44.777l0,0C451.506,685.325,450.815,685.59,450.124,685.59z M435.036,656.406
			c3.889,0.97,8.077,3.491,11.73,7.146c3.341,3.34,5.797,7.223,6.918,10.933c0.082,0.269,0.156,0.536,0.223,0.8l39.084-39.082
			c1.743-1.744,0.583-7.766-5.263-13.612c-3.646-3.646-8.087-6.003-11.311-6.003c-1.037,0-1.81,0.249-2.301,0.739L435.036,656.406z"
			/>
		<path fill="#010101" d="M275.08,838.015c-0.691,0-1.382-0.264-1.908-0.791c-0.528-0.528-0.793-1.219-0.793-1.909
			c0-0.483,0.129-0.968,0.388-1.396l0.032-0.055c23.494-42.16,28.451-50.441,29.68-52.264c0.218-0.379,0.526-0.714,0.89-0.947
			c0.186-0.12,4.629-2.931,10.493-2.931c4.94,0,9.358,1.911,13.13,5.681c8.632,8.638,5.574,19.229,2.751,23.624
			c-0.267,0.413-0.638,0.746-1.079,0.963c-6.214,4.088-50.004,28.434-52.223,29.658C276.021,837.892,275.552,838.015,275.08,838.015
			z M306.693,784.969c-1.981,3.05-13.267,23.04-24.617,43.354c13.943-7.793,39.846-22.336,43.358-24.626
			c1.02-1.868,4.576-9.633-2.262-16.475c-2.722-2.72-5.854-4.099-9.311-4.099C310.499,783.124,307.711,784.424,306.693,784.969z"/>
		<path fill="#010101" d="M288.734,810.915c12.243,0.605,11.489,10.329,11.489,10.329l-23.59,13.204L288.734,810.915z"/>
		<path fill="#010101" d="M463.562,672.147c-1.382,0-2.559-1.054-2.686-2.454c-0.067-0.681-1.779-15.878-20.625-20.312
			c-1.451-0.343-2.351-1.797-2.01-3.248c0.342-1.452,1.803-2.351,3.247-2.012c22.767,5.357,24.75,24.891,24.766,25.087
			c0.132,1.486-0.965,2.797-2.453,2.928C463.723,672.144,463.641,672.147,463.562,672.147z"/>
	</g>
	<g>
		<g>
			<path fill="#010101" d="M392.453,596.503c-0.699,0-1.39-0.271-1.91-0.791l-9.925-9.927c-0.854-0.853-1.038-2.168-0.451-3.223
				l21.208-38.129c0.123-0.22,0.274-0.42,0.451-0.597l72.268-72.267c1.055-1.055,2.764-1.055,3.819,0l26.843,26.844
				c1.055,1.055,1.055,2.764,0,3.818l-72.267,72.269c-0.177,0.177-0.377,0.328-0.596,0.451l-38.129,21.211
				C393.354,596.391,392.901,596.503,392.453,596.503z M385.878,583.408l7.043,7.043l36.017-20.037l70.091-70.091l-23.024-23.024
				l-70.091,70.091L385.878,583.408z"/>
			<path fill="#010101" d="M502.848,503.024c-0.716,0-1.403-0.285-1.91-0.792l-26.858-26.857c-1.055-1.055-1.055-2.764,0-3.819
				l80.095-80.096c4.099-4.099,9.546-6.356,15.34-6.356s11.241,2.258,15.337,6.355c4.097,4.098,6.354,9.544,6.355,15.339
				c0,5.794-2.256,11.242-6.354,15.338l-80.096,80.097C504.251,502.739,503.564,503.024,502.848,503.024z M479.809,473.465
				l23.039,23.039l78.187-78.188c3.077-3.077,4.771-7.167,4.771-11.519c0-4.351-1.696-8.441-4.772-11.52
				c-3.077-3.077-7.167-4.772-11.518-4.772s-8.442,1.696-11.521,4.774L479.809,473.465z"/>
			<path fill="#010101" d="M582.943,393.368c2.525,2.525,4.121,5.598,4.927,8.831l19.5-19.499c3.802-3.801,3.8-9.959,0.001-13.759
				c-3.798-3.799-9.955-3.798-13.757,0.002l-19.494,19.497C577.343,389.247,580.419,390.842,582.943,393.368z"/>
			<path fill="#010101" d="M430.581,575.292c-0.691,0-1.382-0.264-1.91-0.791l-26.845-26.845c-1.055-1.055-1.055-2.764,0-3.819
				c1.055-1.055,2.764-1.055,3.819,0l26.845,26.845c1.055,1.055,1.055,2.765,0,3.819
				C431.963,575.028,431.272,575.292,430.581,575.292z"/>
			<path fill="#010101" d="M516.817,489.056c-0.691,0-1.382-0.264-1.909-0.791l-26.844-26.845c-1.055-1.055-1.055-2.764,0-3.819
				c1.055-1.055,2.764-1.055,3.819,0l26.843,26.845c1.055,1.055,1.055,2.764,0,3.819C518.2,488.792,517.509,489.056,516.817,489.056
				z"/>
			<path fill="#010101" d="M487.98,447.089c-0.467,0-0.919-0.042-1.358-0.128c-1.738-0.34-2.933-1.325-3.471-2.135
				c-0.828-1.241-0.492-2.917,0.75-3.744c1.162-0.778,2.706-0.529,3.578,0.525c0.365,0.198,1.898,0.245,4.91-1.803
				c5.221-3.549,5.779-9,5.783-9.054c0.05-0.642,0.327-1.246,0.782-1.702c2.32-2.321,38.673-38.671,38.673-38.671
				c1.055-1.055,2.764-1.055,3.819,0l35.675,35.675c1.055,1.055,1.055,2.764,0,3.819s-2.764,1.055-3.819,0l-33.765-33.766
				c-7.065,7.064-31.549,31.547-36.134,36.134c-0.443,2.353-2.092,8.031-7.977,12.032
				C492.668,446.146,490.171,447.089,487.98,447.089z"/>
			<path fill="#010101" d="M373.451,605.559c-0.691,0-1.382-0.264-1.91-0.791c-1.055-1.055-1.055-2.764,0-3.819l14.03-14.028
				c1.052-1.056,2.764-1.056,3.819,0c1.055,1.055,1.055,2.764,0,3.819l-14.03,14.028
				C374.834,605.295,374.142,605.559,373.451,605.559z"/>
		</g>
		
			<rect x="516.489" y="403.637" transform="matrix(0.7071 0.7071 -0.7071 0.7071 470.2002 -247.8859)" fill="#010101" width="35.664" height="79.987"/>
		
			<rect x="434.311" y="471.935" transform="matrix(0.7071 0.7071 -0.7071 0.7071 502.6086 -167.3327)" fill="#010101" width="37.964" height="102.202"/>
	</g>
	<g>
		<path fill="#010101" d="M786.024,441.502c-0.712,0-1.399-0.281-1.907-0.789l-30.329-30.239c-0.557-0.555-0.844-1.324-0.787-2.108
			c0.058-0.784,0.454-1.503,1.084-1.972c0.315-0.235,31.621-23.516,41.54-33.465c3.403-3.415,12.462-15.027,20.454-25.273
			c5.197-6.66,10.104-12.952,12.79-16.125c0.041-0.051,0.127-0.15,0.214-0.248c0.645-0.754,1.126-1.289,1.464-1.629
			c4.562-4.576,10.627-7.092,17.08-7.092c6.427,0,12.474,2.499,17.024,7.037c4.562,4.547,7.079,10.599,7.09,17.04
			s-2.487,12.5-7.034,17.061c-0.338,0.339-0.873,0.819-1.538,1.394c-0.185,0.164-0.289,0.255-0.395,0.34
			c-3.103,2.643-9.359,7.554-15.981,12.754c-10.242,8.039-21.849,17.152-25.256,20.571c-9.922,9.95-33.106,41.33-33.34,41.645
			c-0.467,0.632-1.186,1.03-1.969,1.089C786.16,441.5,786.092,441.502,786.024,441.502z M759.813,408.855l25.904,25.828
			c5.792-7.769,23.363-31.082,31.993-39.737c3.639-3.651,14.877-12.474,25.745-21.006c6.581-5.166,12.796-10.045,15.871-12.663
			l0.307-0.266c0.539-0.466,0.975-0.848,1.247-1.123c3.529-3.54,5.468-8.241,5.459-13.239c-0.009-5-1.963-9.696-5.502-13.225
			c-3.532-3.521-8.223-5.459-13.211-5.459c-5.008,0-9.714,1.953-13.25,5.499c-0.267,0.269-0.65,0.703-1.109,1.24l-0.236,0.269
			c-2.656,3.14-7.531,9.39-12.693,16.007c-8.481,10.874-17.253,22.117-20.889,25.764
			C790.822,385.398,767.563,403.041,759.813,408.855z"/>
		<path fill="#010101" d="M741.668,571.615c-0.706,0-1.395-0.276-1.907-0.788L623.81,455.233c-0.671-0.668-0.943-1.642-0.715-2.563
			c0.644-2.588,3.682-7.484,10.587-7.484c1.815,0,3.809,0.34,5.925,1.012c9.735,3.075,25.196-4.088,45.603-21.086
			c12.559-10.458,36.306-28.001,54.247-28.001c5.688,0,10.36,1.782,13.887,5.299l38.845,38.721
			c16.791,16.741-10.141,53.272-22.497,68.202c-17.016,20.56-24.061,35.925-20.942,45.668c1.486,4.651,1.365,8.585-0.363,11.694
			c-2.08,3.743-5.658,4.736-6.059,4.837C742.108,571.589,741.888,571.615,741.668,571.615z M628.952,452.733L742.23,565.662
			c0.503-0.355,1.058-0.887,1.471-1.657c0.925-1.727,0.891-4.271-0.098-7.357c-3.768-11.773,3.404-28.377,21.926-50.758
			c18.352-22.171,33.991-49.82,22.845-60.933l-38.84-38.718c-2.517-2.508-5.811-3.726-10.077-3.726
			c-16.847,0-41.13,18.708-50.789,26.751c-18.608,15.497-33.092,23.031-44.28,23.031c-2.268,0-4.426-0.319-6.41-0.948
			c-1.591-0.502-3.035-0.758-4.295-0.758C631.022,450.589,629.644,451.746,628.952,452.733z"/>
		<path fill="#010101" d="M713.295,548.378c0.051-0.135,0.11-0.267,0.158-0.397c0.527-1.348,1.188-3.15,1.938-5.261l-29.817-29.726
			c-4.396,6.786-8.387,12.959-10.388,16.335c-0.075,0.122-0.142,0.248-0.217,0.372c-0.399,0.686-0.718,1.252-0.906,1.642
			c-5.181,10.627-0.762,23.446,9.871,28.63c10.628,5.177,23.446,0.759,28.626-9.869C712.75,549.715,713.002,549.113,713.295,548.378
			z"/>
	</g>
	<g>
		<path fill="#010101" d="M327.125,650.74h-97.629c-4.386,0-7.965-3.521-8.063-7.884l-14.934-120.928
			c-0.095-0.768,0.144-1.54,0.657-2.121c0.512-0.579,1.249-0.911,2.023-0.911h138.263c0.774,0,1.51,0.332,2.024,0.911
			c0.512,0.581,0.752,1.354,0.657,2.121l-14.936,120.928C335.088,647.22,331.509,650.74,327.125,650.74z M212.232,524.299
			l14.581,118.043c0.013,0.109,0.02,0.221,0.02,0.331c0,1.47,1.195,2.665,2.663,2.665h97.629c1.468,0,2.663-1.195,2.663-2.665
			c0-0.11,0.006-0.222,0.021-0.331l14.578-118.043H212.232z"/>
		<path fill="#010101" d="M354.479,524.299H202.139c-1.49,0-2.701-1.21-2.701-2.701v-30.922c0-1.492,1.21-2.701,2.701-2.701h152.341
			c1.493,0,2.701,1.209,2.701,2.701v30.922C357.18,523.089,355.972,524.299,354.479,524.299z M204.839,518.896h146.939v-25.521
			H204.839V518.896z"/>
		<path fill="#010101" d="M218.221,492.206l-15.911-41.271v-0.001c-0.467-1.221,1.749-4.792,7.472-7.012l18.616,48.284h16.051
			l-19.18-49.751c-0.057-0.232-0.141-0.455-0.254-0.659l-17.239-44.718c-1.192-3.093-4.545-4.866-9.195-4.866
			c-2.567,0-5.359,0.552-8.073,1.6c-3.458,1.332-6.46,3.343-8.457,5.663c-2.391,2.779-3.154,5.743-2.149,8.352l17.366,45.045
			c0,0.001,0.001,0.004,0.003,0.005c0,0.001,0,0.003,0,0.004l15.162,39.327H218.221z M195.408,433.029l-10.466-27.148
			c-0.241-0.624,0.231-1.755,1.203-2.884c1.404-1.633,3.703-3.144,6.306-4.146c2.1-0.81,4.22-1.238,6.129-1.238
			c2.482,0,3.895,0.73,4.156,1.409l10.562,27.4C205.014,426.136,199.011,429.535,195.408,433.029z M199.707,444.185l-2.107-5.469
			c1.783-2.387,7.278-8.105,17.86-6.688l2.047,5.309c-2.897-0.268-6.347,0.265-9.63,1.53
			C204.436,440.193,201.63,442.076,199.707,444.185z"/>
		<path fill="#010101" d="M235.61,414.266l11.72,77.94h5.462l-10.496-69.8c1.766,1.002,3.934,1.704,6.578,1.747l10.232,68.053h5.462
			l-10.355-68.865c2.48-0.814,4.392-2.146,5.838-3.698l10.91,72.563h5.462l-12.352-82.142c-0.058-0.394-0.206-0.751-0.409-1.065
			c-0.886-2.308-4.249-10.135-17.526-39.378c-0.332-1.117-1.366-1.931-2.59-1.931h-0.013c-0.053,0-0.105,0.001-0.158,0.004
			c-0.07,0.004-0.14,0.01-0.21,0.02c-1.18,0.157-2.119,1.067-2.312,2.242c-0.057,0.348-4.663,35.842-5.199,43.117
			c-0.087,0.326-0.108,0.672-0.064,1.026C235.596,414.155,235.604,414.209,235.61,414.266z M243.448,392.485
			c1.648,0.453,3.938,0.439,6.412-1.507c4.406,9.809,7.947,17.797,8.728,19.808c-0.248,1.648-1.528,6.905-7.81,7.852h-0.001
			c-0.565,0.084-1.121,0.128-1.651,0.128h-0.001c-5.053-0.001-7.454-3.996-8.122-5.349
			C241.167,411.13,242.287,401.833,243.448,392.485z"/>
		<path fill="#010101" d="M309.922,475.567c0.236,0.108,0.86,0.35,1.731,0.35c0.515,0,1.113-0.084,1.77-0.33
			c1.899-0.712,3.502-2.503,4.77-5.324c2.09-4.655,1.107-8.791,0.447-10.641l8.196-34.42l3.383,0.805l-15.762,66.199h5.552
			l1.842-7.737l21.062,5.014l-0.649,2.723h5.552l16.403-68.887c1.237-5.194-0.2-10.402-3.402-14.206l4.209-17.673
			c1.229-5.164-1.973-10.367-7.136-11.596c-0.735-0.175-1.486-0.264-2.235-0.264c-4.475,0-8.324,3.043-9.361,7.402l-4.199,17.633
			c-4.637,1.958-8.217,6.019-9.448,11.186l-1.179,4.95l-6.01-1.431c-1.452-0.348-2.908,0.55-3.253,2.002l-9.02,37.885
			c-0.145,0.608-0.061,1.275,0.213,1.837c0.063,0.131,1.547,3.26-0.134,7.004c-0.768,1.71-1.406,2.266-1.641,2.422
			c-1.215-0.258-2.487,0.34-3.028,1.511C307.975,473.339,308.568,474.944,309.922,475.567z M351.55,388.234
			c0.532-2.235,2.829-3.667,5.089-3.135c2.266,0.541,3.671,2.824,3.131,5.092l-3.601,15.126c-0.575-0.313-1.173-0.592-1.793-0.836
			c-0.083-0.033-0.165-0.068-0.248-0.1c-0.625-0.233-1.262-0.443-1.925-0.603c-0.002,0-0.006-0.001-0.01-0.003
			c-0.088-0.021-0.181-0.028-0.271-0.047c-1.154-0.254-2.328-0.397-3.5-0.397c-0.16,0-0.314,0.016-0.472,0.02L351.55,388.234z
			 M337.904,417.053c0.873-3.669,3.52-6.508,6.904-7.703c0.126-0.021,0.256-0.027,0.38-0.067c1.435-0.453,2.893-0.615,4.313-0.487
			c0.013,0.001,0.026,0.001,0.039,0.003c0.472,0.044,0.94,0.121,1.401,0.23c0.444,0.105,0.875,0.244,1.297,0.406
			c0.06,0.022,0.118,0.047,0.177,0.071c1.292,0.523,2.483,1.303,3.546,2.343c0.081,0.079,0.173,0.143,0.262,0.211
			c2.466,2.569,3.627,6.294,2.742,10.008l-1.177,4.949l-21.062-5.014L337.904,417.053z M335.474,427.259l21.062,5.014
			l-12.371,51.957l-21.061-5.014L335.474,427.259z"/>
	</g>
</g>
</svg>
