<?xml version="1.0" encoding="utf-8"?>
<!-- Generator: Adobe Illustrator 18.0.0, SVG Export Plug-In . SVG Version: 6.00 Build 0)  -->
<!DOCTYPE svg PUBLIC "-//W3C//DTD SVG 1.1//EN" "http://www.w3.org/Graphics/SVG/1.1/DTD/svg11.dtd">
<svg version="1.1" id="Layer_1" xmlns="http://www.w3.org/2000/svg" xmlns:xlink="http://www.w3.org/1999/xlink" x="0px" y="0px"
	 viewBox="0 0 1400 1200" enable-background="new 0 0 1400 1200" xml:space="preserve">
<g>
	<rect fill="#FFFFFF" width="1400" height="1200"/>
	<g>
		<path d="M344.6,180c0,1.9,1.6,3.5,3.5,3.5h191c1.9,0,3.5-1.6,3.5-3.5s-1.6-3.5-3.5-3.5h-191C346.2,176.5,344.6,178.1,344.6,180z"
			/>
		<path d="M237.2,267.4c-1.9,0-3.5,1.6-3.5,3.5s1.6,3.5,3.5,3.5h191c1.9,0,3.5-1.6,3.5-3.5s-1.6-3.5-3.5-3.5H237.2z"/>
		<path d="M75.6,460.2h331.8c0.1,0,0.1,0,0.2,0c0.2,0,0.4,0,0.5,0c1.2-0.1,2.3-0.5,3.2-1.2c0.1,0,0.1-0.1,0.2-0.1
			c0.1-0.1,0.2-0.2,0.4-0.3c0.1-0.1,0.1-0.1,0.2-0.2c0.1-0.1,0.2-0.2,0.3-0.3c0,0,0,0,0,0l25.7-26.7c1.3-1.3,2-3,2-4.9v-57.2h78.2
			c0.1,0,0.1,0,0.2,0c0.2,0,0.4,0,0.5,0c1.2-0.1,2.3-0.5,3.2-1.2c0.1,0,0.1-0.1,0.2-0.1c0.1-0.1,0.2-0.2,0.4-0.3
			c0.1-0.1,0.1-0.1,0.2-0.2c0.1-0.1,0.2-0.2,0.3-0.3c0,0,0,0,0,0l25.7-26.7c1.3-1.3,2-3,2-4.9v-57.2h78.2c0.1,0,0.1,0,0.2,0
			c0.2,0,0.4,0,0.5,0c1.2-0.1,2.3-0.5,3.2-1.2c0.1,0,0.1-0.1,0.2-0.1c0.1-0.1,0.2-0.2,0.4-0.3c0.1-0.1,0.1-0.1,0.2-0.2
			c0.1-0.1,0.2-0.2,0.3-0.3c0,0,0,0,0,0l25.7-26.7c1.3-1.3,2-3,2-4.9V107.6c0-0.1,0-0.2,0-0.3c0-0.2,0-0.4,0-0.6
			c0-0.2-0.1-0.3-0.1-0.5c0-0.2-0.1-0.3-0.1-0.5c0-0.2-0.1-0.3-0.2-0.5c0-0.1-0.1-0.2-0.1-0.3c0,0,0-0.1-0.1-0.1
			c-0.1-0.2-0.2-0.3-0.2-0.5c-0.1-0.1-0.2-0.3-0.3-0.4c-0.1-0.1-0.2-0.3-0.3-0.4c-0.1-0.1-0.2-0.3-0.3-0.4c-0.1-0.1-0.2-0.2-0.3-0.4
			c-0.1-0.1-0.2-0.2-0.4-0.4c-0.1-0.1-0.3-0.2-0.4-0.3c-0.1-0.1-0.3-0.2-0.4-0.3c-0.1-0.1-0.3-0.2-0.4-0.2c-0.2-0.1-0.3-0.2-0.5-0.2
			c-0.1,0-0.1-0.1-0.2-0.1c-0.1,0-0.2-0.1-0.3-0.1c-0.2-0.1-0.3-0.1-0.5-0.2c-0.2,0-0.3-0.1-0.5-0.1c-0.2,0-0.3-0.1-0.5-0.1
			c-0.2,0-0.4,0-0.5,0c-0.1,0-0.2,0-0.3,0H323.2c-1.9,0-3.7,0.8-5,2.1l-25.7,26.7c0,0,0,0.1-0.1,0.1c-0.2,0.2-0.4,0.4-0.5,0.6
			c0,0-0.1,0.1-0.1,0.1c-0.2,0.2-0.3,0.5-0.5,0.8c0,0,0,0.1-0.1,0.1c-0.1,0.2-0.2,0.5-0.3,0.8c0,0,0,0.1,0,0.1
			c-0.1,0.3-0.2,0.6-0.2,0.9c0,0.1,0,0.1,0,0.2c0,0.2-0.1,0.5-0.1,0.7c0,0.1,0,0.2,0,0.2c0,0.1,0,0.1,0,0.2v57.2h-78.2
			c-1.9,0-3.7,0.8-5,2.1l-25.7,26.7c0,0,0,0.1-0.1,0.1c-0.2,0.2-0.4,0.4-0.5,0.6c0,0-0.1,0.1-0.1,0.1c-0.2,0.2-0.3,0.5-0.5,0.8
			c0,0,0,0.1-0.1,0.1c-0.1,0.2-0.2,0.5-0.3,0.8c0,0,0,0.1,0,0.1c-0.1,0.3-0.2,0.6-0.2,0.9c0,0.1,0,0.1,0,0.2c0,0.2-0.1,0.5-0.1,0.7
			c0,0.1,0,0.2,0,0.2c0,0.1,0,0.1,0,0.2v57.2h-78.2c-1.9,0-3.7,0.8-5,2.1l-25.7,26.7c0,0,0,0.1-0.1,0.1c-0.2,0.2-0.4,0.4-0.5,0.6
			c0,0-0.1,0.1-0.1,0.1c-0.2,0.2-0.3,0.5-0.5,0.8c0,0,0,0.1-0.1,0.1c-0.1,0.2-0.2,0.5-0.3,0.7c0,0,0,0.1-0.1,0.1
			c-0.1,0.3-0.2,0.6-0.2,0.9c0,0.1,0,0.1,0,0.2c0,0.2-0.1,0.5-0.1,0.7c0,0.1,0,0.2,0,0.2c0,0.1,0,0.1,0,0.2v137.2
			C68.6,457.1,71.8,460.2,75.6,460.2z M82.6,431.1h168.1c1.9,0,3.5-1.6,3.5-3.5s-1.6-3.5-3.5-3.5H82.6v-41.9h128.7
			c1.9,0,3.5-1.6,3.5-3.5s-1.6-3.5-3.5-3.5H82.6v-30.7h180.9c1.9,0,3.5-1.6,3.5-3.5s-1.6-3.5-3.5-3.5H82.6V323h317.8v14.4h-68.8
			c-1.9,0-3.5,1.6-3.5,3.5s1.6,3.5,3.5,3.5h68.8v13.9H355c-1.9,0-3.5,1.6-3.5,3.5s1.6,3.5,3.5,3.5h45.5v21.2H235.4
			c-1.9,0-3.5,1.6-3.5,3.5s1.6,3.5,3.5,3.5h165.1v16.2H287.6c-1.9,0-3.5,1.6-3.5,3.5s1.6,3.5,3.5,3.5h112.9v29.6H82.6V431.1z
			 M622.3,227.9h-71.2v-16.2h71.2V227.9z M511.4,318.8h-71.2v-16.2h71.2V318.8z M414.5,435.9v-117l11.7-12.1v117L414.5,435.9z
			 M440.2,325.8h71.2v29.6h-71.2V325.8z M525.4,345V228l11.7-12.1v117L525.4,345z M551.1,234.9h71.2v29.6h-71.2V234.9z M636.3,254.2
			v-117L648,125v117L636.3,254.2z M638.6,114.6l-12.2,12.7H314l12.2-12.7H638.6z M485.3,155.7H304.5v-14.4h317.8v14.4h-68.8
			c-1.9,0-3.5,1.6-3.5,3.5s1.6,3.5,3.5,3.5h68.8v13.9h-45.5c-1.9,0-3.5,1.6-3.5,3.5s1.6,3.5,3.5,3.5h45.5v21.2h-71.2v-6.2
			c0-0.1,0-0.2,0-0.3c0-0.2,0-0.4,0-0.6c0-0.2-0.1-0.3-0.1-0.5c0-0.2-0.1-0.3-0.1-0.5c0-0.2-0.1-0.3-0.2-0.5c0-0.1-0.1-0.2-0.1-0.3
			c0,0,0-0.1-0.1-0.1c-0.1-0.2-0.2-0.3-0.2-0.5c-0.1-0.1-0.2-0.3-0.3-0.4c-0.1-0.1-0.2-0.3-0.3-0.4c-0.1-0.1-0.2-0.3-0.3-0.4
			c-0.1-0.1-0.2-0.2-0.3-0.4c-0.1-0.1-0.2-0.2-0.4-0.4c-0.1-0.1-0.3-0.2-0.4-0.3c-0.1-0.1-0.3-0.2-0.4-0.3c-0.1-0.1-0.3-0.2-0.4-0.2
			c-0.2-0.1-0.3-0.2-0.5-0.2c-0.1,0-0.1-0.1-0.2-0.1c-0.1,0-0.2-0.1-0.3-0.1c-0.2-0.1-0.3-0.1-0.5-0.2c-0.2,0-0.3-0.1-0.5-0.1
			c-0.2,0-0.3-0.1-0.5-0.1c-0.2,0-0.4,0-0.5,0c-0.1,0-0.2,0-0.3,0H304.5v-28.8h180.9c1.9,0,3.5-1.6,3.5-3.5S487.3,155.7,485.3,155.7
			z M527.6,205.5l-12.2,12.7H203l12.2-12.7H527.6z M374.4,253.5c1.9,0,3.5-1.6,3.5-3.5s-1.6-3.5-3.5-3.5H193.6v-14.4h317.8v14.4
			h-68.8c-1.9,0-3.5,1.6-3.5,3.5s1.6,3.5,3.5,3.5h68.8v13.9h-45.5c-1.9,0-3.5,1.6-3.5,3.5s1.6,3.5,3.5,3.5h45.5v21.2h-71.2v-6.2
			c0-0.1,0-0.2,0-0.3c0-0.2,0-0.4,0-0.6c0-0.2-0.1-0.3-0.1-0.5c0-0.2-0.1-0.3-0.1-0.5c0-0.2-0.1-0.3-0.2-0.5c0-0.1-0.1-0.2-0.1-0.3
			c0,0,0-0.1-0.1-0.1c-0.1-0.2-0.2-0.3-0.2-0.5c-0.1-0.1-0.2-0.3-0.3-0.4c-0.1-0.1-0.2-0.3-0.3-0.4c-0.1-0.1-0.2-0.3-0.3-0.4
			c-0.1-0.1-0.2-0.2-0.3-0.4c-0.1-0.1-0.2-0.2-0.4-0.4c-0.1-0.1-0.3-0.2-0.4-0.3c-0.1-0.1-0.3-0.2-0.4-0.3c-0.1-0.1-0.3-0.2-0.4-0.2
			c-0.2-0.1-0.3-0.2-0.5-0.2c-0.1,0-0.1-0.1-0.2-0.1c-0.1,0-0.2-0.1-0.3-0.1c-0.2-0.1-0.3-0.1-0.5-0.2c-0.2,0-0.3-0.1-0.5-0.1
			c-0.2,0-0.3-0.1-0.5-0.1c-0.2,0-0.4,0-0.6,0c-0.1,0-0.2,0-0.3,0H193.6v-28.8H374.4z M416.7,296.4L404.5,309H92.1l12.2-12.7H416.7z
			"/>
		<path d="M317.3,365.3c1.9,0,3.5-1.6,3.5-3.5s-1.6-3.5-3.5-3.5h-191c-1.9,0-3.5,1.6-3.5,3.5s1.6,3.5,3.5,3.5H317.3z"/>
		<path d="M185.7,396h-42.2c-1.9,0-3.5,1.6-3.5,3.5s1.6,3.5,3.5,3.5h42.2c1.9,0,3.5-1.6,3.5-3.5S187.6,396,185.7,396z"/>
		<path d="M754.1,333.8h116.3c11.1,71.5,73.1,126.4,147.7,126.4c74.6,0,136.6-54.9,147.7-126.4h116.3c3.9,0,7-3.1,7-7v-32
			c0-3.9-3.1-7-7-7h-64.7c-0.8-7.1-2-14.1-3.5-21h102.6c10.1,0,18.3-8.2,18.3-18.3s-8.2-18.3-18.3-18.3h-114.6
			c-2.9-6.5-6.1-12.8-9.6-19l-35.4-105.6c-0.6-1.9-2.1-3.4-3.9-4.2s-3.9-0.7-5.7,0.1l-51.4,24.4c-24.2-10.2-50.5-15.5-77.6-15.5
			c-53.6,0-103.9,20.9-141.8,58.7c-32.4,32.4-52.3,73.9-57.4,118.8h-64.7c-3.9,0-7,3.1-7,7v32C747.1,330.6,750.2,333.8,754.1,333.8z
			 M761.1,301.8h513.9v18H761.1V301.8z M835.1,274h76.6c1.9,0,3.5-1.6,3.5-3.5s-1.6-3.5-3.5-3.5h-75c1.2-5.1,2.6-10.1,4.3-15.1H921
			c1.9,0,3.5-1.6,3.5-3.5s-1.6-3.5-3.5-3.5h-77.6c2.1-5.5,4.4-10.8,6.9-16.1h84c1.9,0,3.5-1.6,3.5-3.5s-1.6-3.5-3.5-3.5H854
			c8.5-15.6,19.3-30.1,32.2-43c35.2-35.2,82.1-54.6,131.9-54.6c49.8,0,96.7,19.4,131.9,54.6c15.2,15.2,27.4,32.5,36.4,51.2h-29.9
			c-10.1,0-18.3,8.2-18.3,18.3s8.2,18.3,18.3,18.3h43c1.7,6.9,2.9,13.9,3.8,21h-98.2c-3.9-15.2-11.8-28.9-23.4-40.5
			c-17.2-17.2-39.2-26.3-63.5-26.3c-24.3,0-46.3,9.1-63.5,26.3c-11.6,11.6-19.5,25.3-23.4,40.5h-98.2
			C833.5,283.1,834.2,278.5,835.1,274z M1159.8,169c-14.3-14.3-30.4-26.2-47.8-35.5l33.9-16.1l19.1,57
			C1163.3,172.6,1161.6,170.7,1159.8,169z M1320.7,248.4c0,2.4-1.9,4.3-4.3,4.3h-160c-2.4,0-4.3-1.9-4.3-4.3c0-2.4,1.9-4.3,4.3-4.3
			h160C1318.7,244.1,1320.7,246,1320.7,248.4z M1018,260.8c-19.2,0-36,10.9-44.3,26.9h-28c3.6-11.4,9.9-21.7,18.7-30.6
			c14.5-14.5,33-22.2,53.6-22.2s39.1,7.7,53.6,22.2c8.9,8.9,15.1,19.2,18.7,30.6h-28C1054,271.8,1037.3,260.8,1018,260.8z
			 M1054.2,287.8h-72.4c7.6-12,21-19.9,36.2-19.9S1046.6,275.8,1054.2,287.8z M884.5,333.8h19.8c10.7,52.9,57.6,92.9,113.6,92.9
			s102.9-40,113.6-92.9h19.8c-11,63.8-66.6,112.4-133.5,112.4S895.5,397.5,884.5,333.8z M1018,360.7c19.2,0,36-10.9,44.3-26.9h62.2
			c-10.6,49.1-54.3,85.9-106.5,85.9s-95.9-36.9-106.5-85.9h62.2C982.1,349.7,998.8,360.7,1018,360.7z M981.8,333.8h72.4
			c-7.6,12-21,19.9-36.2,19.9S989.4,345.7,981.8,333.8z"/>
		<path d="M985.5,172.6c0,17.9,14.6,32.5,32.5,32.5s32.5-14.6,32.5-32.5s-14.6-32.5-32.5-32.5S985.5,154.7,985.5,172.6z M1018,198.1
			c-6.9,0-13.2-2.8-17.8-7.3h35.7C1031.2,195.3,1024.9,198.1,1018,198.1z M1040.9,183.8h-45.8c-1.2-2.4-2-5-2.4-7.7h50.5
			C1042.9,178.9,1042.1,181.5,1040.9,183.8z M1043.3,169.1h-50.5c0.4-2.7,1.2-5.3,2.4-7.7h45.8
			C1042.1,163.8,1042.9,166.4,1043.3,169.1z M1035.8,154.4h-35.7c4.6-4.5,10.9-7.3,17.8-7.3S1031.2,149.9,1035.8,154.4z"/>
		<path d="M145.2,713.4H551c46.5,0,84.2-37.8,84.2-84.2c0-46.5-37.8-84.2-84.2-84.2H145.2c-46.5,0-84.2,37.8-84.2,84.2
			C61,675.6,98.8,713.4,145.2,713.4z M551,699.4c-38.7,0-70.2-31.5-70.2-70.2c0-38.7,31.5-70.2,70.2-70.2s70.2,31.5,70.2,70.2
			C621.3,667.9,589.7,699.4,551,699.4z M488,573.3H348.1c-1.9,0-3.5,1.6-3.5,3.5s1.6,3.5,3.5,3.5h134.3c-2.5,3.5-4.7,7.2-6.7,11h-82
			c-1.9,0-3.5,1.6-3.5,3.5s1.6,3.5,3.5,3.5h78.8c-1.5,3.8-2.7,7.8-3.7,11.8h-19.1c-1.9,0-3.5,1.6-3.5,3.5s1.6,3.5,3.5,3.5h17.8
			c-0.6,3.9-0.9,7.9-0.9,12c0,4.7,0.4,9.3,1.1,13.7H167.8c-1.9,0-3.5,1.6-3.5,3.5s1.6,3.5,3.5,3.5h301.5c1.1,4.5,2.7,8.8,4.5,13
			h-136c-1.9,0-3.5,1.6-3.5,3.5s1.6,3.5,3.5,3.5h139.5c2.6,4.6,5.5,9,8.9,13h-113c-1.9,0-3.5,1.6-3.5,3.5s1.6,3.5,3.5,3.5h119.6
			c3.7,3.5,7.6,6.7,11.8,9.5H145.2c-12.8,0-24.8-3.5-35.2-9.5h166.5c1.9,0,3.5-1.6,3.5-3.5s-1.6-3.5-3.5-3.5H100.1
			c-10.2-8.6-17.9-20-22-33h67c1.9,0,3.5-1.6,3.5-3.5s-1.6-3.5-3.5-3.5H76.3c-0.7-3.3-1.1-6.8-1.3-10.2h31.5c1.9,0,3.5-1.6,3.5-3.5
			s-1.6-3.5-3.5-3.5H75.1c0.1-2.9,0.5-5.7,1-8.5h104.6c1.6,8.8,9.4,15.5,18.7,15.5h151.6c9.3,0,17-6.7,18.7-15.5h51.6
			c1.9,0,3.5-1.6,3.5-3.5s-1.6-3.5-3.5-3.5h-51.6c-1.6-8.8-9.4-15.5-18.7-15.5H199.3c-9.3,0-17,6.7-18.7,15.5h-103
			c1.2-4.1,2.7-8.1,4.5-11.8h85.7c1.9,0,3.5-1.6,3.5-3.5s-1.6-3.5-3.5-3.5H86.1c2.5-4,5.5-7.7,8.7-11h134.4c1.9,0,3.5-1.6,3.5-3.5
			s-1.6-3.5-3.5-3.5H102.7c11.8-9,26.5-14.4,42.5-14.4h359.3C498.5,563,492.9,567.8,488,573.3z M187.3,613.7c0-6.6,5.4-12,12-12
			h151.6c6.6,0,12,5.4,12,12c0,6.6-5.4,12-12,12H199.3C192.7,625.7,187.3,620.3,187.3,613.7z"/>
		<path d="M551,568.4c-33.5,0-60.7,27.3-60.7,60.7s27.3,60.7,60.7,60.7s60.7-27.3,60.7-60.7S584.5,568.4,551,568.4z M551,682.9
			c-29.6,0-53.7-24.1-53.7-53.7c0-29.6,24.1-53.7,53.7-53.7s53.7,24.1,53.7,53.7C604.8,658.8,580.6,682.9,551,682.9z"/>
		<path d="M551,588.4c-22.5,0-40.7,18.3-40.7,40.7c0,22.5,18.3,40.7,40.7,40.7s40.7-18.3,40.7-40.7
			C591.8,606.7,573.5,588.4,551,588.4z M551,662.9c-18.6,0-33.7-15.1-33.7-33.7s15.1-33.7,33.7-33.7s33.7,15.1,33.7,33.7
			S569.6,662.9,551,662.9z"/>
		<path d="M551,608.4c-11.4,0-20.7,9.3-20.7,20.7s9.3,20.7,20.7,20.7s20.7-9.3,20.7-20.7S562.5,608.4,551,608.4z M551,642.9
			c-7.6,0-13.7-6.2-13.7-13.7s6.2-13.7,13.7-13.7s13.7,6.2,13.7,13.7S558.6,642.9,551,642.9z"/>
		<path d="M254,580.3h55.5c1.9,0,3.5-1.6,3.5-3.5s-1.6-3.5-3.5-3.5H254c-1.9,0-3.5,1.6-3.5,3.5S252.1,580.3,254,580.3z"/>
		<path d="M237.3,613.7c0-1.9-1.6-3.5-3.5-3.5h-38.7c-1.9,0-3.5,1.6-3.5,3.5s1.6,3.5,3.5,3.5h38.7
			C235.8,617.2,237.3,615.6,237.3,613.7z"/>
		<path d="M259.2,617.2h78.7c1.9,0,3.5-1.6,3.5-3.5s-1.6-3.5-3.5-3.5h-78.7c-1.9,0-3.5,1.6-3.5,3.5S257.2,617.2,259.2,617.2z"/>
		<path d="M125,666.4c0,1.9,1.6,3.5,3.5,3.5h86c1.9,0,3.5-1.6,3.5-3.5s-1.6-3.5-3.5-3.5h-86C126.5,662.9,125,664.5,125,666.4z"/>
		<path d="M249.8,669.9h53.3c1.9,0,3.5-1.6,3.5-3.5s-1.6-3.5-3.5-3.5h-53.3c-1.9,0-3.5,1.6-3.5,3.5S247.9,669.9,249.8,669.9z"/>
		<path d="M309.5,689.9h38.6c1.9,0,3.5-1.6,3.5-3.5s-1.6-3.5-3.5-3.5h-38.6c-1.9,0-3.5,1.6-3.5,3.5S307.6,689.9,309.5,689.9z"/>
		<path d="M729.1,479c1.9,0,3.5-1.6,3.5-3.5v-9c0-1.9-1.6-3.5-3.5-3.5s-3.5,1.6-3.5,3.5v9C725.6,477.4,727.1,479,729.1,479z"/>
		<path d="M1332,517.6v-120c0-13.8-11.2-25-25-25s-25,11.2-25,25v120H754.1v-120c0-13.8-11.2-25-25-25s-25,11.2-25,25v120
			c-3.9,0-7,3.1-7,7v74.5c0,3.9,3.1,7,7,7v20.2c0,13.8,11.2,25,25,25s25-11.2,25-25v-8.3c85.1,29.4,173.9,44.3,263.9,44.3
			c90,0,178.8-14.9,263.9-44.3v8.3c0,13.8,11.2,25,25,25s25-11.2,25-25v-20.2c3.9,0,7-3.1,7-7v-74.5
			C1339,520.7,1335.9,517.6,1332,517.6z M1310.5,636.7v-6.2c0-1.9-1.6-3.5-3.5-3.5s-3.5,1.6-3.5,3.5v6.2c-4.4-1.5-7.5-5.6-7.5-10.5
			v-20.2h7.5v6.9c0,1.9,1.6,3.5,3.5,3.5s3.5-1.6,3.5-3.5v-6.9h7.5v20.2C1318,631.1,1314.9,635.3,1310.5,636.7z M732.6,636.7v-6.2
			c0-1.9-1.6-3.5-3.5-3.5s-3.5,1.6-3.5,3.5v6.2c-4.4-1.5-7.5-5.6-7.5-10.5v-20.2h7.5v6.9c0,1.9,1.6,3.5,3.5,3.5s3.5-1.6,3.5-3.5
			v-6.9h7.5v20.2C740.1,631.1,736.9,635.3,732.6,636.7z M725.6,387.2v65.3c0,1.9,1.6,3.5,3.5,3.5s3.5-1.6,3.5-3.5v-65.3
			c4.4,1.5,7.5,5.6,7.5,10.5v120h-7.5V493c0-1.9-1.6-3.5-3.5-3.5s-3.5,1.6-3.5,3.5v24.6H718v-120C718,392.8,721.2,388.6,725.6,387.2
			z M1303.5,387.2v65.3c0,1.9,1.6,3.5,3.5,3.5s3.5-1.6,3.5-3.5v-65.3c4.4,1.5,7.5,5.6,7.5,10.5v120h-7.5V493c0-1.9-1.6-3.5-3.5-3.5
			s-3.5,1.6-3.5,3.5v24.6h-7.5v-120C1295.9,392.8,1299.1,388.6,1303.5,387.2z M711,531.6h36.1v60.5H711V531.6z M1274.9,575.4
			c-82.9,28.2-169.3,42.5-256.9,42.5c-87.6,0-174-14.3-256.9-42.5v-43.9h513.9L1274.9,575.4z M1325,592.1h-36.1v-60.5h36.1V592.1z
			 M761.1,605.5v-6.4v-16.2c82.9,27.9,169.3,42.1,256.9,42.1c87.6,0,174-14.2,256.9-42.1l0,22.7c-82.9,28.3-169.3,42.7-256.9,42.7
			C930.4,648.2,844,633.8,761.1,605.5z"/>
		<path d="M1307,479c1.9,0,3.5-1.6,3.5-3.5v-9c0-1.9-1.6-3.5-3.5-3.5s-3.5,1.6-3.5,3.5v9C1303.5,477.4,1305,479,1307,479z"/>
		<path d="M703.3,830.9H587.1c-10.5-50.7-55.5-88.9-109.3-88.9s-98.8,38.2-109.3,88.9H70.6c-3.9,0-7,3.1-7,7v31.5c0,3.9,3.1,7,7,7
			h27v169.3H76.3c-3.9,0-7,3.1-7,7v20c0,3.9,3.1,7,7,7h104.3c3.9,0,7-3.1,7-7v-20c0-3.9-3.1-7-7-7h-21.3V876.3h209.2
			C379,927,424,965.2,477.8,965.2c16.8,0,32.8-3.8,47.1-10.5v40.5c0,3.9,3.1,7,7,7h82.7v43.3h-21.3c-3.9,0-7,3.1-7,7v20
			c0,3.9,3.1,7,7,7h104.3c3.9,0,7-3.1,7-7v-20c0-3.9-3.1-7-7-7h-21.3V876.3h27c3.9,0,7-3.1,7-7v-31.5
			C710.3,834,707.2,830.9,703.3,830.9z M690.6,1065.6h-90.3v-6h21.3h47.7h21.3V1065.6z M539,876.3h75.7v112H539V876.3z M477.8,891.2
			c12.2,0,23.1-5.8,29.9-14.9H525v40.8c-13.2,9.8-29.5,15.6-47.1,15.6c-35.7,0-66-23.8-75.8-56.4h45.8
			C454.7,885.4,465.6,891.2,477.8,891.2z M457.3,876.3h41c-5.4,4.9-12.6,7.9-20.5,7.9S462.8,881.2,457.3,876.3z M394.8,876.3
			c10,36.5,43.4,63.4,83,63.4c17.4,0,33.6-5.2,47.1-14.1v13.5c-14,7.7-30.1,12.2-47.1,12.2c-46,0-84.7-32-95-74.9H394.8z
			 M628.6,995.3v-119H642v169.3h-13.3V995.3z M662.3,1045.6H649V876.3h13.3V1045.6z M669.3,862.3h-47.7H532H152.3h-47.7h-27v-5.2
			h618.7v5.2H669.3z M173.7,1065.6H83.3v-6h21.3h47.7h21.3V1065.6z M111.6,876.3H125v169.3h-13.3V876.3z M145.3,1045.6H132V876.3
			h13.3V1045.6z M77.6,850.1v-5.2h618.7v5.2H77.6z M477.8,755.9c46,0,84.7,32,95,74.9h-11.9c-10-36.5-43.4-63.4-83-63.4
			s-73,26.9-83,63.4h-11.9C393.1,787.9,431.8,755.9,477.8,755.9z M477.8,816c-12.2,0-23.1,5.8-29.9,14.9H402
			c9.8-32.6,40-56.4,75.8-56.4s66,23.8,75.8,56.4h-45.8C500.9,821.8,490,816,477.8,816z M498.3,830.9h-41c5.4-4.9,12.6-7.9,20.5-7.9
			S492.9,826,498.3,830.9z"/>
		<path d="M576.8,891.1c-12.3,0-22.3,10-22.3,22.3s10,22.3,22.3,22.3s22.3-10,22.3-22.3S589.1,891.1,576.8,891.1z M576.8,928.8
			c-8.5,0-15.3-6.9-15.3-15.3s6.9-15.3,15.3-15.3c8.5,0,15.3,6.9,15.3,15.3S585.3,928.8,576.8,928.8z"/>
		<path d="M576.8,945c-7.3,0-13.2,5.9-13.2,13.2s5.9,13.2,13.2,13.2s13.2-5.9,13.2-13.2S584.1,945,576.8,945z M576.8,964.5
			c-3.4,0-6.2-2.8-6.2-6.2c0-3.4,2.8-6.2,6.2-6.2c3.4,0,6.2,2.8,6.2,6.2C583,961.7,580.2,964.5,576.8,964.5z"/>
		<path d="M1139,968.7c-8-15-18.1-28.7-30.1-40.8l-17.6-17.6c-1.4-1.4-3.6-1.4-4.9,0c-1.4,1.4-1.4,3.6,0,4.9l17.6,17.6
			c11.5,11.5,21.3,24.7,28.9,39.1l19.6,37c0.6,1.2,1.8,1.9,3.1,1.9c0.6,0,1.1-0.1,1.6-0.4c1.7-0.9,2.4-3,1.5-4.7L1139,968.7z"/>
		<path d="M1320.1,801.7l-102.2-27l-15.4-15.4l27.9-27.9c1.3-1.3,2.1-3.1,2.1-5s-0.7-3.6-2.1-5l-29.6-29.6c-2.7-2.7-7.2-2.7-9.9,0
			l-27.9,27.9l-9.5-9.5c-2.7-2.7-7.2-2.7-9.9,0l-52,52c-2.7,2.7-2.7,7.2,0,9.9l9.5,9.5l-48.4,48.4l-48.4-48.4l9.5-9.5
			c2.7-2.7,2.7-7.2,0-9.9l-52-52c-2.7-2.7-7.2-2.7-9.9,0l-9.5,9.5L914.7,692c-1.3-1.3-3.1-2-5-2s-3.6,0.7-5,2l-29.6,29.6
			c-2.7,2.7-2.7,7.2,0,9.9l27.9,27.9l-15.4,15.4l-102.2,27c-3.6,1-5.8,4.6-5.1,8.2c14.4,67,66.9,119.6,133.9,133.9
			c0.5,0.1,1,0.2,1.5,0.2c3.1,0,5.9-2.1,6.8-5.2l27-102.2l15.4-15.4l48.4,48.4l-36.6,36.6c-18,18-33.5,38.2-46.2,60.2l-61.7,107.1
			c-1.1,1.9-1.2,4.2-0.4,6.3c0.9,2,2.7,3.5,4.8,4l64.2,15.3c0.5,0.1,1.1,0.2,1.6,0.2c2.9,0,5.5-1.8,6.6-4.6l24.3-66.5
			c13.7-37.4,35.8-72.1,63.9-100.3l18.9-18.9l18.9,18.9c28.2,28.2,50.3,62.8,63.9,100.3l24.3,66.5c1,2.8,3.7,4.6,6.6,4.6
			c0.5,0,1.1-0.1,1.6-0.2l64.2-15.3c2.2-0.5,3.9-2,4.8-4c0.9-2,0.7-4.4-0.4-6.3l-61.7-107.1c-12.7-22-28.2-42.3-46.2-60.2
			l-36.6-36.6l48.4-48.4l15.4,15.4l27,102.2c0.8,3.1,3.6,5.2,6.8,5.2c0.5,0,1-0.1,1.5-0.2c67-14.4,119.6-66.9,133.9-133.9
			C1326,806.3,1323.8,802.7,1320.1,801.7z M1194.8,928.7l-4.3-16.1c50.4-13.4,89.9-52.9,103.3-103.3l16.1,4.3
			C1295.4,869.9,1251.2,914.1,1194.8,928.7z M1217.4,1073.1l-43.3-70.8c-1-1.7-3.2-2.2-4.8-1.2c-1.6,1-2.2,3.2-1.2,4.8l42.1,68.9
			l-9.6,2.3l-10.3-19.9c-0.9-1.7-3-2.4-4.7-1.5c-1.7,0.9-2.4,3-1.5,4.7l9.5,18.4l-6.6,1.6l-17.7-49.6c-0.7-1.8-2.7-2.8-4.5-2.1
			c-1.8,0.7-2.8,2.7-2.1,4.5l17.5,48.9l-9.3,2.2l-22.1-60.7c-14.3-39.3-37.6-75.8-67.2-105.4l-18.9-18.9l3.8-3.8l1,1
			c0.7,0.7,1.6,1,2.5,1s1.8-0.3,2.5-1c1.4-1.4,1.4-3.6,0-4.9l-1-1l11-11l36.6,36.6c17.1,17.1,31.9,36.4,43.9,57.3l57,99
			L1217.4,1073.1z M1024,918.1c-29.6,29.6-52.8,66-67.2,105.4l-22.1,60.7l-9.3-2.2l17.5-48.9c0.7-1.8-0.3-3.8-2.1-4.5
			c-1.8-0.7-3.8,0.3-4.5,2.1l-17.7,49.6l-6.6-1.6l9.5-18.4c0.9-1.7,0.2-3.8-1.5-4.7c-1.7-0.9-3.8-0.2-4.7,1.5L905,1077l-9.6-2.3
			l42.1-68.9c1-1.6,0.5-3.8-1.2-4.8c-1.6-1-3.8-0.5-4.8,1.2l-43.3,70.8l-2.5-0.6l57-99c12.1-20.9,26.8-40.2,43.9-57.3L1111,791.6
			l2.6,2.6l-10.2,10.2c-1.4,1.4-1.4,3.6,0,4.9c0.7,0.7,1.6,1,2.5,1s1.8-0.3,2.5-1l10.2-10.2l3.4,3.4l-48.9,48.9
			c-1.4,1.4-1.4,3.6,0,4.9c0.7,0.7,1.6,1,2.5,1s1.8-0.3,2.5-1l48.9-48.9l3.8,3.8L1024,918.1z M795.6,813.5l16.1-4.3
			c13.4,50.4,52.9,89.9,103.3,103.3l-4.3,16.1C854.4,914.1,810.1,869.9,795.6,813.5z M916.8,905.8c-47.9-12.7-85.6-50.4-98.3-98.3
			l70.7-18.6l46.3,46.3L916.8,905.8z M943.2,823.1L901.2,781l25.5-25.5l42.1,42.1L943.2,823.1z M973.6,792.7l-42.1-42.1l25.5-25.5
			l42.1,42.1L973.6,792.7z M1040.3,842.6l-24.7-24.7c-1.4-1.4-3.6-1.4-4.9,0c-1.4,1.4-1.4,3.6,0,4.9l24.7,24.7l-3.4,3.4l-48.4-48.4
			l3.4-3.4l10.2,10.2c0.7,0.7,1.6,1,2.5,1s1.8-0.3,2.5-1c1.4-1.4,1.4-3.6,0-4.9l-10.2-10.2l2.6-2.6l48.4,48.4L1040.3,842.6z
			 M921.7,740.7l-22.9-22.9l3.4-3.4l12,12c0.7,0.7,1.6,1,2.5,1s1.8-0.3,2.5-1c1.4-1.4,1.4-3.6,0-4.9l-12-12l2.6-2.6l22.9,22.9
			L921.7,740.7z M893.8,722.7l22.9,22.9l-3.8,3.8L890,726.5L893.8,722.7z M978.6,807.5l48.4,48.4l-3.8,3.8l-48.4-48.4L978.6,807.5z
			 M1106.5,767.2l42.1-42.1l25.5,25.5l-42.1,42.1L1106.5,767.2z M1188.8,745.7l22.9-22.9l3.8,3.8l-22.9,22.9L1188.8,745.7z
			 M1186.4,726.4c0.7,0.7,1.6,1,2.5,1s1.8-0.3,2.5-1l12-12l3.4,3.4l-22.9,22.9l-11-11l22.9-22.9l2.6,2.6l-12,12
			C1185,722.8,1185,725,1186.4,726.4z M1136.9,797.6l42.1-42.1l25.5,25.5l-42.1,42.1L1136.9,797.6z M1170.1,835.1l46.3-46.3
			l70.7,18.6c-12.7,47.9-50.4,85.6-98.3,98.3L1170.1,835.1z"/>
		<path d="M1058.6,866.1l-25.5,25.5c-1.4,1.4-1.4,3.6,0,4.9c0.7,0.7,1.6,1,2.5,1s1.8-0.3,2.5-1l25.5-25.5c1.4-1.4,1.4-3.6,0-4.9
			C1062.1,864.7,1059.9,864.7,1058.6,866.1z"/>
		<path d="M1095,822.8c1.4-1.4,1.4-3.6,0-4.9c-1.4-1.4-3.6-1.4-4.9,0l-46.4,46.4c-1.4,1.4-1.4,3.6,0,4.9c0.7,0.7,1.6,1,2.5,1
			s1.8-0.3,2.5-1L1095,822.8z"/>
		<path d="M1014.2,910.4L996.6,928c-12,12-22.2,25.7-30.1,40.8l-19.6,37c-0.9,1.7-0.3,3.8,1.5,4.7c0.5,0.3,1.1,0.4,1.6,0.4
			c1.3,0,2.5-0.7,3.1-1.9l19.6-37c7.6-14.4,17.4-27.6,28.9-39.1l17.6-17.6c1.4-1.4,1.4-3.6,0-4.9
			C1017.8,909,1015.6,909,1014.2,910.4z"/>
	</g>
</g>
</svg>
